<svg xmlns="http://www.w3.org/2000/svg" width="120" height="120" viewBox="0 0 120 120" version="1.1">
    <path d="M 48.309 1.636 C 47.562 3.583, 48.897 5.960, 51.567 7.433 C 54.903 9.274, 56.149 12, 53.655 12 C 52.915 12, 51.495 11.100, 50.500 10 C 48.376 7.652, 43.467 7.340, 42.638 9.500 C 41.976 11.226, 42.829 14, 44.022 14 C 44.466 14, 45.881 14.880, 47.165 15.954 C 48.449 17.029, 50.850 19.016, 52.500 20.369 C 54.150 21.723, 55.161 23.170, 54.746 23.586 C 54.331 24.001, 52.952 23.364, 51.682 22.171 C 50.411 20.977, 48.893 20, 48.308 20 C 47.723 20, 46.666 19.302, 45.958 18.449 C 45.126 17.446, 43.405 17.005, 41.086 17.199 C 33.687 17.820, 37.498 24.231, 48.896 30.340 C 52.428 32.233, 54.907 34.693, 54.968 36.365 C 54.986 36.841, 53.904 36.512, 52.564 35.634 C 47.175 32.103, 43 30.087, 43 31.017 C 43 31.558, 42.325 32, 41.500 32 C 40.333 32, 40 33.333, 40 38 C 40 41.905, 40.407 44, 41.167 44 C 41.808 44, 41.997 44.337, 41.585 44.748 C 40.075 46.258, 38 41.488, 38 36.509 C 38 33.699, 37.580 30.973, 37.067 30.450 C 36.554 29.928, 35.991 27.700, 35.817 25.500 C 35.512 21.656, 35.364 21.500, 32 21.500 L 28.500 21.500 28.550 29.250 C 28.617 39.688, 26.448 39.964, 25.481 29.640 C 24.347 17.542, 18.973 15.086, 18 26.221 C 17.398 33.115, 15.623 32.841, 14.569 25.692 C 13.422 17.911, 7.430 18.819, 7.637 26.742 L 7.774 31.984 3.887 33.030 C 0.740 33.878, 0 34.535, 0 36.480 C -0 39.875, 1.374 40.345, 7.047 38.891 C 14.602 36.955, 15.919 39.210, 8.581 41.518 C 4.482 42.808, 3 43.759, 3 45.102 C 3 48.778, 6.376 49.195, 14.378 46.509 C 22.612 43.745, 23.005 43.665, 22.989 44.750 C 22.977 45.491, 18.562 47.660, 12.250 50.025 C 8.713 51.350, 7.950 54.093, 10.429 56.571 C 12.056 58.199, 15.143 58.449, 16.550 57.067 C 17.708 55.930, 32.234 51, 34.426 51 C 36.947 51, 36.241 52.723, 33.430 53.428 C 23.385 55.949, 21.897 60.755, 29.961 64.633 C 35.656 67.372, 37.443 69, 34.753 69 C 32.865 69, 17.635 63.876, 16.550 62.876 C 13.811 60.351, 9 62.755, 9 66.649 C 9 68.488, 9.967 69.203, 14.306 70.570 C 19.924 72.341, 23.741 74.592, 22.771 75.563 C 22.168 76.166, 9.159 72.157, 7.648 70.903 C 6.479 69.933, 3 73.064, 3 75.085 C 3 76.201, 4.787 77.288, 8.581 78.482 C 15.919 80.790, 14.602 83.045, 7.047 81.109 C 1.374 79.655, -0 80.125, -0 83.520 C -0 85.465, 0.740 86.122, 3.887 86.970 L 7.774 88.016 7.637 93.258 C 7.502 98.428, 7.543 98.504, 10.614 98.803 C 13.885 99.122, 15 96.978, 15 90.375 C 15 88.931, 15.588 88, 16.500 88 C 17.653 88, 18 89.281, 18 93.531 C 18 104.631, 24.002 102.182, 25.500 90.471 C 26.879 79.693, 28.745 79.539, 28.607 90.214 L 28.500 98.500 32 98.500 C 35.364 98.500, 35.512 98.344, 35.817 94.500 C 35.991 92.300, 36.554 90.072, 37.067 89.550 C 37.580 89.027, 38.007 86.327, 38.015 83.550 C 38.024 80.772, 38.505 77.825, 39.084 77 C 39.848 75.912, 39.967 77.039, 39.516 81.100 C 38.905 86.594, 42.665 92.385, 44.876 89.355 C 45.219 88.885, 46.625 87.869, 48 87.097 C 49.375 86.326, 51.512 85.036, 52.750 84.232 C 55.187 82.648, 55.690 83.589, 53.695 86 C 52.331 87.649, 49.589 89.517, 46.500 90.901 C 41.722 93.044, 36.709 98.508, 37.432 100.786 C 38.275 103.443, 43.992 103.919, 46 101.500 C 46.685 100.675, 47.723 100, 48.308 100 C 48.893 100, 50.411 99.023, 51.682 97.829 C 52.952 96.636, 54.291 95.958, 54.657 96.323 C 55.529 97.196, 52.063 101, 50.395 101 C 49.682 101, 48.703 101.708, 48.219 102.573 C 47.735 103.439, 46.250 104.690, 44.919 105.353 C 42.124 106.746, 41.742 109.804, 44.172 111.337 C 45.861 112.402, 48.211 111.658, 52.202 108.793 C 53.138 108.121, 54.161 107.828, 54.476 108.142 C 55.385 109.051, 53.911 112, 52.548 112 C 50.581 112, 47.699 115.772, 48.356 117.485 C 49.361 120.104, 51.981 120.376, 55.832 118.264 C 59.646 116.171, 61.351 116.262, 64.168 118.711 C 66.847 121.040, 70.445 119.979, 70.816 116.750 C 70.990 115.237, 70.676 114, 70.118 114 C 68.683 114, 64 109.501, 64 108.123 C 64 107.491, 65.834 108.132, 68.075 109.547 C 72.859 112.568, 76.361 112.474, 76.811 109.313 C 77.026 107.807, 76.247 106.566, 74.311 105.327 C 72.765 104.337, 71.050 103.040, 70.500 102.444 C 69.950 101.848, 68.263 100.594, 66.750 99.657 C 65.237 98.720, 64 97.292, 64 96.484 C 64 95.484, 65.467 96.133, 68.577 98.507 C 75.234 103.589, 81.080 104.540, 81.826 100.664 C 82.282 98.296, 79.732 95.551, 73.159 91.334 C 67.164 87.489, 63.108 84, 64.633 84 C 65.189 84, 67.411 85.337, 69.572 86.972 C 76.419 92.153, 78 90.994, 78 80.796 C 78 70.699, 80.613 75.005, 81.476 86.525 C 81.867 91.736, 82.595 96, 83.093 96 C 83.592 96, 84 96.675, 84 97.500 C 84 99.468, 88.360 99.476, 89.991 97.511 C 90.805 96.530, 91.093 93.653, 90.835 89.089 C 90.620 85.276, 90.794 82.372, 91.222 82.637 C 91.650 82.902, 92 83.991, 92 85.059 C 92 86.127, 92.428 87, 92.950 87 C 93.473 87, 94.035 89.541, 94.200 92.646 C 94.559 99.411, 96.622 101.557, 99.906 98.585 C 101.569 97.081, 101.821 95.977, 101.328 92.378 C 100.923 89.424, 101.098 88, 101.864 88 C 102.489 88, 103 88.810, 103 89.800 C 103 90.790, 103.412 92.027, 103.915 92.550 C 104.419 93.072, 104.981 94.620, 105.165 95.990 C 106.010 102.276, 112.342 98.767, 111.827 92.297 C 111.539 88.666, 111.803 87.893, 113.492 87.424 C 119.617 85.723, 120.999 84.737, 120.921 82.129 C 120.878 80.683, 120.621 80.046, 120.350 80.714 C 119.974 81.641, 119.421 81.655, 118.013 80.776 C 116.610 79.900, 115.251 79.925, 112.334 80.881 C 109.753 81.727, 107.683 81.833, 106 81.204 C 103.536 80.283, 103.550 80.259, 107 79.514 C 114.055 77.992, 120.102 72, 114.583 72 C 113.804 72, 112.938 71.438, 112.659 70.750 C 112.325 69.926, 111.870 69.847, 111.326 70.517 C 109.730 72.481, 96.842 76.242, 95.681 75.081 C 94.906 74.306, 95.206 74, 96.741 74 C 97.919 74, 99.153 73.562, 99.483 73.027 C 99.814 72.492, 101.794 71.594, 103.883 71.031 C 108.077 69.902, 112.375 66.014, 110.250 65.271 C 109.563 65.030, 109 64.196, 109 63.417 C 109 61.827, 103.491 61.396, 102.554 62.913 C 101.807 64.122, 85.263 69.254, 83.744 68.748 C 83.093 68.531, 85.081 67.161, 88.163 65.703 C 95.688 62.143, 96.464 56, 89.389 56 C 88.625 56, 88 55.563, 88 55.029 C 88 54.494, 86.537 53.652, 84.750 53.156 C 82.219 52.455, 81.872 52.099, 83.183 51.546 C 84.982 50.789, 101.599 55.541, 102.554 57.087 C 103.491 58.604, 109 58.173, 109 56.583 C 109 55.804, 109.563 54.970, 110.250 54.729 C 112.375 53.986, 108.077 50.098, 103.883 48.969 C 101.794 48.406, 99.814 47.508, 99.483 46.973 C 99.153 46.438, 97.919 46, 96.741 46 C 95.193 46, 94.903 45.697, 95.692 44.908 C 96.835 43.765, 111 47.647, 111 49.103 C 111 49.493, 112.121 49.292, 113.492 48.656 C 118.497 46.335, 116.443 43.065, 108.500 40.709 C 102.084 38.806, 106.156 37.157, 112.832 38.955 C 117.911 40.322, 121.040 38.796, 120.921 35.009 C 120.878 33.629, 120.636 33.001, 120.384 33.613 C 118.938 37.121, 111.278 31.715, 111.751 27.520 C 112.458 21.245, 106 17.803, 105.165 24.010 C 104.981 25.380, 104.419 26.928, 103.915 27.450 C 103.412 27.973, 103 29.210, 103 30.200 C 103 31.190, 102.489 32, 101.864 32 C 101.098 32, 100.923 30.576, 101.328 27.622 C 101.821 24.023, 101.569 22.919, 99.906 21.415 C 96.622 18.443, 94.559 20.589, 94.200 27.354 C 94.035 30.459, 93.473 33, 92.950 33 C 92.428 33, 92 33.873, 92 34.941 C 92 36.009, 91.650 37.098, 91.222 37.363 C 90.794 37.628, 90.620 34.724, 90.835 30.911 C 91.093 26.347, 90.805 23.470, 89.991 22.489 C 88.360 20.524, 84 20.532, 84 22.500 C 84 23.325, 83.592 24, 83.093 24 C 82.595 24, 81.867 28.264, 81.476 33.475 C 80.746 43.221, 78 49.656, 78 41.622 C 78 39.630, 78.450 38, 79 38 C 80.485 38, 80.210 35.067, 78.571 33.429 C 76.604 31.461, 72.740 31.639, 69.885 33.830 C 66.964 36.071, 64 37.223, 64 36.118 C 64 35.230, 66.532 33.183, 74.909 27.299 C 81.026 23.002, 82.596 20.996, 81.691 18.636 C 80.365 15.183, 72.473 17.556, 66.250 23.279 C 64.269 25.101, 64 25.144, 64 23.641 C 64 22.701, 65.575 21.003, 67.500 19.867 C 69.425 18.732, 71 17.421, 71 16.956 C 71 16.490, 72.237 15.516, 73.750 14.791 C 75.659 13.876, 76.500 12.713, 76.500 10.987 C 76.500 7.440, 72.804 7.202, 67.920 10.434 C 62.992 13.695, 62.782 11.760, 67.600 7.474 C 72.947 2.717, 69.581 -3.370, 64.168 1.268 C 61.280 3.741, 59.358 3.896, 56.106 1.919 C 52.242 -0.432, 49.146 -0.544, 48.309 1.636 M 0.195 36.500 C 0.215 38.150, 0.439 38.704, 0.693 37.731 C 0.947 36.758, 0.930 35.408, 0.656 34.731 C 0.382 34.054, 0.175 34.850, 0.195 36.500 M 66.250 45.987 C 65.013 46.995, 64 48.791, 64 49.978 C 64 51.902, 66.847 52.194, 68.821 50.472 C 70.774 48.768, 68.247 44.360, 66.250 45.987 M 50 47.300 C 50 49.845, 51.697 52, 53.700 52 C 55.749 52, 55.238 47.198, 53.066 46.035 C 50.330 44.571, 50 44.708, 50 47.300 M 42.750 58.689 C 40.047 59.396, 40.676 60.770, 44.041 61.509 C 47.539 62.277, 51.079 60.301, 48.797 58.854 C 47.427 57.984, 45.634 57.936, 42.750 58.689 M 70.667 58.667 C 68.483 60.850, 72.105 62.367, 76.500 61.110 L 79.500 60.252 76.685 59.126 C 73.479 57.844, 71.631 57.703, 70.667 58.667 M 51.257 69.250 C 49.379 71.625, 49.130 75.882, 50.906 75.253 C 53.788 74.234, 55 72.790, 55 70.378 C 55 67.817, 52.891 67.182, 51.257 69.250 M 64 70.238 C 64 72.459, 66.660 76, 68.329 76 C 68.698 76, 69 74.425, 69 72.500 C 69 70.575, 68.587 69, 68.082 69 C 67.577 69, 66.452 68.727, 65.582 68.393 C 64.404 67.941, 64 68.413, 64 70.238 M 0.195 83.500 C 0.215 85.150, 0.439 85.704, 0.693 84.731 C 0.947 83.758, 0.930 82.408, 0.656 81.731 C 0.382 81.054, 0.175 81.850, 0.195 83.500"
          stroke="none" fill="#4474eb" fill-rule="evenodd"/>
</svg>