<svg xmlns="http://www.w3.org/2000/svg" width="250" height="250" viewBox="0 0 250 250" version="1.1">
    <path d="M 99.303 10.506 C 84.894 14.494, 71.976 18.040, 70.596 18.387 C 64.064 20.026, 60.977 26.976, 66.177 28.336 C 67.723 28.740, 67.991 28.591, 67.179 27.779 C 66.367 26.967, 66.529 26.321, 67.785 25.367 C 69.895 23.763, 71.355 23.616, 70.438 25.100 C 69.946 25.896, 70.316 25.901, 71.780 25.118 C 73.393 24.254, 103.257 15.833, 128.750 9.053 C 133.758 7.721, 134.077 6.608, 130.050 4.526 C 126.458 2.668, 130.356 1.910, 99.303 10.506 M 126.349 30 C 126.349 34.675, 126.522 36.587, 126.732 34.250 C 126.943 31.912, 126.943 28.087, 126.732 25.750 C 126.522 23.412, 126.349 25.325, 126.349 30 M 57.496 31.857 C 55.912 34.411, 50.066 43.700, 44.504 52.500 C 38.942 61.300, 34.093 68.996, 33.728 69.603 C 32.905 70.969, 35.550 74.784, 36.595 73.738 C 37.013 73.321, 36.487 72.280, 35.427 71.425 C 33.539 69.902, 33.541 69.890, 35.499 70.864 C 36.975 71.598, 37.939 71.460, 39.180 70.337 C 40.714 68.949, 40.810 69.012, 40.273 71.064 C 39.305 74.767, 41.575 72.495, 45.104 66.229 C 46.879 63.078, 52.010 54.875, 56.506 48 C 67.546 31.119, 68.519 29.203, 65.448 30.382 C 64.594 30.709, 64.130 30.598, 64.417 30.135 C 64.703 29.671, 63.911 28.825, 62.656 28.253 C 60.596 27.314, 60.096 27.663, 57.496 31.857 M 148.500 32.409 C 106.043 45.612, 105.550 45.795, 102.283 49.484 C 99.160 53.012, 99.309 53.909, 103.250 55.313 C 104.213 55.656, 105 55.501, 105 54.969 C 105 54.436, 104.450 54, 103.777 54 C 103.105 54, 103.639 53.240, 104.965 52.312 C 106.500 51.237, 107.506 51.019, 107.737 51.711 C 107.986 52.458, 108.942 52.381, 110.800 51.465 C 112.285 50.732, 126.749 46.131, 142.941 41.242 C 173.843 31.911, 174.776 31.481, 170.105 28.721 C 166.442 26.557, 168.381 26.226, 148.500 32.409 M 165.310 56.500 C 165.315 59.800, 165.502 61.029, 165.725 59.232 C 165.947 57.435, 165.943 54.735, 165.715 53.232 C 165.486 51.729, 165.304 53.200, 165.310 56.500 M 93.630 60.735 C 66.415 103.063, 67.428 101.280, 69.591 103.075 C 71.369 104.551, 71.002 105.001, 82.118 87.715 C 87.948 78.649, 90.599 75.304, 91.235 76.215 C 91.848 77.094, 91.962 76.868, 91.596 75.500 C 91.278 74.312, 91.888 72.485, 93.098 71 C 94.833 68.870, 94.976 68.823, 94.067 70.684 C 92.352 74.195, 92.829 74.487, 95.250 71.409 C 97.553 68.482, 97.691 67.242, 95.650 67.833 C 95.017 68.017, 94.875 67.792, 95.333 67.333 C 95.792 66.875, 96.692 66.489, 97.333 66.476 C 97.975 66.463, 98.433 65.645, 98.350 64.659 C 98.267 63.673, 98.456 63.123, 98.769 63.436 C 99.427 64.094, 103 61.088, 103 59.876 C 103 59.429, 102.273 59.342, 101.384 59.683 C 100.046 60.196, 99.948 59.966, 100.814 58.348 C 104.258 51.913, 97.955 54.007, 93.630 60.735 M 196.500 60.112 C 144.983 78.122, 137.575 81.755, 144.084 85.820 C 147.169 87.747, 150.031 87.356, 147.500 85.353 C 146.327 84.425, 146.117 83.955, 146.991 84.216 C 147.811 84.460, 149.081 84.062, 149.813 83.330 C 151.361 81.782, 153.409 81.530, 152.500 83 C 151.710 84.278, 152.558 84.273, 154.764 82.988 C 155.719 82.431, 170.386 77.297, 187.359 71.579 C 221.742 59.995, 221.709 60.012, 216.884 57.070 C 212.540 54.422, 212.952 54.361, 196.500 60.112 M 211.646 75.764 C 211.341 76.257, 210.173 87.563, 209.050 100.888 C 207.928 114.212, 206.557 125.959, 206.005 126.991 C 204.430 129.933, 204.743 135, 206.500 135 C 207.557 135, 208.016 133.893, 208.053 131.250 C 208.083 129.188, 209.137 115.800, 210.397 101.500 C 212.654 75.888, 212.746 73.983, 211.646 75.764 M 35.093 80.388 C 34.417 81.202, 34.170 83.374, 34.495 85.638 C 34.800 87.762, 35.703 98.227, 36.502 108.894 C 37.301 119.561, 38.190 128.524, 38.478 128.811 C 39.370 129.704, 39.046 120.253, 37.515 100.775 C 36.706 90.477, 36.307 81.364, 36.629 80.525 C 37.359 78.623, 36.613 78.556, 35.093 80.388 M 140.461 87.395 C 125.392 107.603, 108.171 136.600, 110.097 138.525 C 111.337 139.766, 113.238 137.436, 124.410 120.978 C 131.496 110.540, 137.504 102, 137.762 102 C 138.019 102, 137.485 103.138, 136.573 104.528 C 135.662 105.919, 135.195 107.507, 135.536 108.058 C 135.876 108.608, 138.652 105.203, 141.705 100.491 C 146.996 92.322, 148.021 89.088, 144.360 92.107 C 142.816 93.382, 142.778 93.301, 143.917 91.164 C 144.602 89.880, 145.013 88.740, 144.831 88.631 C 144.649 88.523, 143.808 87.910, 142.961 87.270 C 141.778 86.375, 141.201 86.404, 140.461 87.395 M 76.652 99.666 C 75.635 101.025, 75.012 102.345, 75.266 102.600 C 75.521 102.854, 76.501 101.884, 77.444 100.444 C 79.667 97.052, 79.056 96.452, 76.652 99.666 M 133.078 109.854 C 132.268 111.368, 132.311 112.061, 133.247 112.600 C 133.936 112.996, 134.166 112.952, 133.759 112.502 C 133.351 112.052, 133.528 111.069, 134.151 110.318 C 134.775 109.566, 135.032 108.699, 134.724 108.390 C 134.415 108.081, 133.674 108.740, 133.078 109.854 M 70.143 110.891 C 69.011 111.608, 68.970 115.633, 69.896 135.125 C 70.506 147.981, 71.004 159.377, 71.003 160.450 C 71.001 161.660, 71.350 162.040, 71.922 161.450 C 72.485 160.870, 72.459 152.709, 71.854 140.500 C 71.310 129.500, 71.007 118.137, 71.182 115.249 C 71.357 112.360, 71.500 110.005, 71.500 110.014 C 71.500 110.023, 70.889 110.418, 70.143 110.891 M 119.158 132.457 C 118.008 134.406, 117.405 136, 117.818 136 C 118.799 136, 122.338 130.005, 121.721 129.388 C 121.461 129.128, 120.307 130.509, 119.158 132.457 M 110.500 137 C 110.840 137.550, 111.316 138, 111.559 138 C 111.802 138, 112 137.550, 112 137 C 112 136.450, 111.523 136, 110.941 136 C 110.359 136, 110.160 136.450, 110.500 137 M 194.198 139.441 C 187.987 142.789, 177 150.557, 177 151.600 C 177 151.895, 178.238 151.279, 179.750 150.232 C 185.360 146.347, 185.347 146.859, 179.704 151.981 C 172.815 158.234, 172.806 159.947, 179.692 154.214 C 185.286 149.556, 193.295 144.388, 200.787 140.601 C 206.050 137.941, 206.865 135.979, 202.691 136.023 C 201.486 136.035, 197.664 137.574, 194.198 139.441 M 110.111 147.366 C 109.284 148.363, 109.130 161.404, 109.543 195.616 C 109.853 221.402, 110.083 243.314, 110.054 244.309 C 110.021 245.403, 110.445 245.843, 111.127 245.422 C 112.015 244.872, 112.260 146.014, 111.372 146.002 C 111.302 146.001, 110.735 146.615, 110.111 147.366 M 192.452 148.744 C 188.071 151.903, 185.682 159, 189 159 C 190.100 159, 191 158.425, 191 157.722 C 191 155.270, 194.982 152.740, 196.656 154.129 C 197.946 155.200, 198.109 154.894, 197.827 151.937 C 197.497 148.465, 194.943 146.948, 192.452 148.744 M 204.474 157.474 C 204.079 162.212, 203.973 166.306, 204.238 166.572 C 204.504 166.837, 205.036 163.169, 205.421 158.421 C 205.806 153.673, 205.912 149.579, 205.656 149.323 C 205.401 149.067, 204.868 152.735, 204.474 157.474 M 193.192 157.075 C 193.389 157.666, 193.978 158.150, 194.500 158.150 C 195.022 158.150, 195.611 157.666, 195.808 157.075 C 196.005 156.484, 195.417 156, 194.500 156 C 193.583 156, 192.995 156.484, 193.192 157.075 M 167.217 173.561 C 164.575 175.411, 161.667 180.652, 162.518 182.029 C 163.551 183.700, 165.040 183.106, 167.678 179.971 C 169.605 177.680, 170.543 177.206, 171.529 178.024 C 173.327 179.517, 174.605 175.434, 172.960 173.452 C 171.416 171.591, 169.990 171.618, 167.217 173.561 M 203.232 175 C 203.232 176.925, 203.438 177.713, 203.689 176.750 C 203.941 175.787, 203.941 174.213, 203.689 173.250 C 203.438 172.287, 203.232 173.075, 203.232 175 M 169 180.441 C 169 181.298, 169.450 182, 170 182 C 170.550 182, 171 181.577, 171 181.059 C 171 180.541, 170.550 179.840, 170 179.500 C 169.450 179.160, 169 179.584, 169 180.441 M 175.542 209.122 C 152.391 219.643, 150.362 220.762, 151.813 222.213 C 152.344 222.744, 161.870 218.958, 175.106 212.954 C 202.888 200.354, 201.633 201.015, 199.885 199.908 C 198.036 198.737, 200.176 197.927, 175.542 209.122 M 143.158 204.198 C 140.231 210.278, 138.920 219.579, 140.469 223.265 C 141.626 226.015, 141.726 225.775, 142.324 218.836 C 142.672 214.801, 143.605 209.026, 144.397 206.001 C 146.186 199.164, 145.831 198.646, 143.158 204.198 M 152.354 204.342 C 149.595 207.112, 147 210.977, 147 212.318 C 147 212.565, 147.900 213.002, 149 213.290 C 150.168 213.595, 151 213.320, 151 212.629 C 151 210.376, 155.015 207.767, 156.537 209.031 C 158.915 211.004, 159.719 205.259, 157.381 203.002 C 155.558 201.241, 155.403 201.283, 152.354 204.342 M 154 211.500 C 154 212.325, 154.450 213, 155 213 C 155.550 213, 156 212.325, 156 211.500 C 156 210.675, 155.550 210, 155 210 C 154.450 210, 154 210.675, 154 211.500 M 129 228.661 C 112.315 236.438, 113.862 240.069, 130.801 232.889 C 142.263 228.030, 141.627 228.484, 139.690 226.548 C 137.708 224.565, 137.844 224.538, 129 228.661"
          stroke="none" fill="#04FCFC" fill-rule="evenodd"/>
    <path d="M 103.223 15.919 C 87.670 20.201, 73.804 24.224, 72.409 24.860 C 70.926 25.535, 70.131 25.597, 70.495 25.008 C 71.363 23.604, 69.840 23.805, 67.785 25.367 C 66.529 26.321, 66.367 26.967, 67.179 27.779 C 67.991 28.591, 67.710 28.737, 66.128 28.323 C 64.941 28.013, 63.724 27.363, 63.425 26.879 C 62.705 25.714, 61 25.752, 61 26.933 C 61 27.446, 61.907 28.153, 63.015 28.505 C 64.123 28.856, 64.774 29.556, 64.463 30.061 C 64.151 30.565, 64.594 30.709, 65.448 30.382 C 68.519 29.203, 67.546 31.119, 56.506 48 C 52.010 54.875, 46.879 63.078, 45.104 66.229 C 41.575 72.495, 39.305 74.767, 40.273 71.064 C 40.810 69.012, 40.714 68.949, 39.180 70.337 C 37.967 71.435, 37.008 71.584, 35.739 70.874 C 34.383 70.115, 33.846 70.303, 33.396 71.695 C 33.075 72.688, 32.387 74.648, 31.867 76.051 C 31.064 78.219, 34.940 138.561, 37.513 163.958 C 38.543 174.125, 40.333 174.626, 55.500 169 C 61.430 166.800, 66.607 165, 67.003 165 C 67.400 165, 68.035 173.213, 68.415 183.250 C 69.420 209.769, 69.641 209.956, 89.988 201.542 C 97.359 198.494, 103.977 196, 104.695 196 C 105.730 196, 106 200.723, 106 218.845 C 106 240.833, 106.079 241.762, 108.114 243.595 L 110.228 245.500 109.605 196.880 C 109.111 158.403, 109.244 148.043, 110.241 147.217 C 111.250 146.381, 111.500 156.173, 111.500 196.584 C 111.500 224.310, 111.661 246.996, 111.858 246.997 C 112.055 246.999, 118.130 244.334, 125.358 241.075 C 132.586 237.817, 153.561 228.358, 171.969 220.057 C 190.376 211.755, 205.765 204.634, 206.165 204.231 C 206.565 203.829, 208.957 181, 211.479 153.500 C 214.002 126, 216.951 94.275, 218.032 83 C 220.433 57.969, 220.416 59.753, 218.250 60.951 C 217.287 61.483, 203 66.435, 186.500 71.954 C 170 77.472, 155.719 82.441, 154.764 82.994 C 152.555 84.274, 151.712 84.276, 152.500 83 C 153.409 81.530, 151.361 81.782, 149.813 83.330 C 149.081 84.062, 147.811 84.460, 146.991 84.216 C 146.117 83.955, 146.327 84.425, 147.500 85.353 C 150.031 87.356, 147.169 87.747, 144.084 85.820 C 139.877 83.193, 146.636 77.753, 159.936 73.063 L 171.711 68.912 172.424 50.857 C 172.816 40.927, 172.993 32.682, 172.818 32.533 C 172.322 32.113, 113.836 49.966, 110.800 51.465 C 108.942 52.381, 107.986 52.458, 107.737 51.711 C 107.506 51.019, 106.500 51.237, 104.965 52.312 C 103.639 53.240, 103.105 54, 103.777 54 C 104.450 54, 105 54.436, 105 54.969 C 105 55.501, 104.213 55.656, 103.250 55.313 C 95.482 52.544, 101.636 47.234, 119.006 41.719 L 132.500 37.434 132.777 22.717 C 132.929 14.623, 132.704 8.030, 132.277 8.067 C 131.850 8.104, 118.775 11.638, 103.223 15.919 M 126.349 30 C 126.349 34.675, 126.522 36.587, 126.732 34.250 C 126.943 31.912, 126.943 28.087, 126.732 25.750 C 126.522 23.412, 126.349 25.325, 126.349 30 M 165.310 56.500 C 165.315 59.800, 165.502 61.029, 165.725 59.232 C 165.947 57.435, 165.943 54.735, 165.715 53.232 C 165.486 51.729, 165.304 53.200, 165.310 56.500 M 93.630 60.735 C 66.415 103.063, 67.428 101.280, 69.591 103.075 C 71.369 104.551, 71.002 105.001, 82.118 87.715 C 87.948 78.649, 90.599 75.304, 91.235 76.215 C 91.848 77.094, 91.962 76.868, 91.596 75.500 C 91.278 74.312, 91.888 72.485, 93.098 71 C 94.833 68.870, 94.976 68.823, 94.067 70.684 C 92.352 74.195, 92.829 74.487, 95.250 71.409 C 97.553 68.482, 97.691 67.242, 95.650 67.833 C 95.017 68.017, 94.875 67.792, 95.333 67.333 C 95.792 66.875, 96.692 66.489, 97.333 66.476 C 97.975 66.463, 98.433 65.645, 98.350 64.659 C 98.267 63.673, 98.456 63.123, 98.769 63.436 C 99.427 64.094, 103 61.088, 103 59.876 C 103 59.429, 102.273 59.342, 101.384 59.683 C 100.046 60.196, 99.948 59.966, 100.814 58.348 C 104.258 51.913, 97.955 54.007, 93.630 60.735 M 34.229 72.187 C 34.727 73.682, 37 74.505, 37 73.190 C 37 72.653, 36.287 71.941, 35.416 71.606 C 34.443 71.233, 33.985 71.456, 34.229 72.187 M 211.646 75.764 C 211.341 76.257, 210.173 87.563, 209.050 100.888 C 207.928 114.212, 206.557 125.959, 206.005 126.991 C 204.430 129.933, 204.743 135, 206.500 135 C 207.557 135, 208.016 133.893, 208.053 131.250 C 208.083 129.188, 209.137 115.800, 210.397 101.500 C 212.654 75.888, 212.746 73.983, 211.646 75.764 M 35.093 80.388 C 34.417 81.202, 34.170 83.374, 34.495 85.638 C 34.800 87.762, 35.703 98.227, 36.502 108.894 C 37.301 119.561, 38.190 128.524, 38.478 128.811 C 39.370 129.704, 39.046 120.253, 37.515 100.775 C 36.706 90.477, 36.307 81.364, 36.629 80.525 C 37.359 78.623, 36.613 78.556, 35.093 80.388 M 140.461 87.395 C 125.392 107.603, 108.171 136.600, 110.097 138.525 C 111.337 139.766, 113.238 137.436, 124.410 120.978 C 131.496 110.540, 137.504 102, 137.762 102 C 138.019 102, 137.485 103.138, 136.573 104.528 C 135.662 105.919, 135.195 107.507, 135.536 108.058 C 135.876 108.608, 138.652 105.203, 141.705 100.491 C 146.996 92.322, 148.021 89.088, 144.360 92.107 C 142.816 93.382, 142.778 93.301, 143.917 91.164 C 144.602 89.880, 145.013 88.740, 144.831 88.631 C 144.649 88.523, 143.808 87.910, 142.961 87.270 C 141.778 86.375, 141.201 86.404, 140.461 87.395 M 76.652 99.666 C 75.635 101.025, 75.012 102.345, 75.266 102.600 C 75.521 102.854, 76.501 101.884, 77.444 100.444 C 79.667 97.052, 79.056 96.452, 76.652 99.666 M 133.078 109.854 C 132.268 111.368, 132.311 112.061, 133.247 112.600 C 133.936 112.996, 134.166 112.952, 133.759 112.502 C 133.351 112.052, 133.528 111.069, 134.151 110.318 C 134.775 109.566, 135.032 108.699, 134.724 108.390 C 134.415 108.081, 133.674 108.740, 133.078 109.854 M 70.143 110.891 C 69.011 111.608, 68.970 115.633, 69.896 135.125 C 70.506 147.981, 71.004 159.377, 71.003 160.450 C 71.001 161.660, 71.350 162.040, 71.922 161.450 C 72.485 160.870, 72.459 152.709, 71.854 140.500 C 71.310 129.500, 71.007 118.137, 71.182 115.249 C 71.357 112.360, 71.500 110.005, 71.500 110.014 C 71.500 110.023, 70.889 110.418, 70.143 110.891 M 119.158 132.457 C 118.008 134.406, 117.405 136, 117.818 136 C 118.799 136, 122.338 130.005, 121.721 129.388 C 121.461 129.128, 120.307 130.509, 119.158 132.457 M 110.500 137 C 110.840 137.550, 111.316 138, 111.559 138 C 111.802 138, 112 137.550, 112 137 C 112 136.450, 111.523 136, 110.941 136 C 110.359 136, 110.160 136.450, 110.500 137 M 194.198 139.441 C 187.987 142.789, 177 150.557, 177 151.600 C 177 151.895, 178.238 151.279, 179.750 150.232 C 185.360 146.347, 185.347 146.859, 179.704 151.981 C 172.815 158.234, 172.806 159.947, 179.692 154.214 C 185.286 149.556, 193.295 144.388, 200.787 140.601 C 206.050 137.941, 206.865 135.979, 202.691 136.023 C 201.486 136.035, 197.664 137.574, 194.198 139.441 M 192.452 148.744 C 188.071 151.903, 185.682 159, 189 159 C 190.100 159, 191 158.425, 191 157.722 C 191 155.270, 194.982 152.740, 196.656 154.129 C 197.946 155.200, 198.109 154.894, 197.827 151.937 C 197.497 148.465, 194.943 146.948, 192.452 148.744 M 204.474 157.474 C 204.079 162.212, 203.973 166.306, 204.238 166.572 C 204.504 166.837, 205.036 163.169, 205.421 158.421 C 205.806 153.673, 205.912 149.579, 205.656 149.323 C 205.401 149.067, 204.868 152.735, 204.474 157.474 M 193.192 157.075 C 193.389 157.666, 193.978 158.150, 194.500 158.150 C 195.022 158.150, 195.611 157.666, 195.808 157.075 C 196.005 156.484, 195.417 156, 194.500 156 C 193.583 156, 192.995 156.484, 193.192 157.075 M 167.217 173.561 C 164.575 175.411, 161.667 180.652, 162.518 182.029 C 163.551 183.700, 165.040 183.106, 167.678 179.971 C 169.605 177.680, 170.543 177.206, 171.529 178.024 C 173.327 179.517, 174.605 175.434, 172.960 173.452 C 171.416 171.591, 169.990 171.618, 167.217 173.561 M 203.232 175 C 203.232 176.925, 203.438 177.713, 203.689 176.750 C 203.941 175.787, 203.941 174.213, 203.689 173.250 C 203.438 172.287, 203.232 173.075, 203.232 175 M 169 180.441 C 169 181.298, 169.450 182, 170 182 C 170.550 182, 171 181.577, 171 181.059 C 171 180.541, 170.550 179.840, 170 179.500 C 169.450 179.160, 169 179.584, 169 180.441 M 175.542 209.122 C 152.391 219.643, 150.362 220.762, 151.813 222.213 C 152.344 222.744, 161.870 218.958, 175.106 212.954 C 202.888 200.354, 201.633 201.015, 199.885 199.908 C 198.036 198.737, 200.176 197.927, 175.542 209.122 M 143.158 204.198 C 140.231 210.278, 138.920 219.579, 140.469 223.265 C 141.626 226.015, 141.726 225.775, 142.324 218.836 C 142.672 214.801, 143.605 209.026, 144.397 206.001 C 146.186 199.164, 145.831 198.646, 143.158 204.198 M 152.354 204.342 C 149.595 207.112, 147 210.977, 147 212.318 C 147 212.565, 147.900 213.002, 149 213.290 C 150.168 213.595, 151 213.320, 151 212.629 C 151 210.376, 155.015 207.767, 156.537 209.031 C 158.915 211.004, 159.719 205.259, 157.381 203.002 C 155.558 201.241, 155.403 201.283, 152.354 204.342 M 154 211.500 C 154 212.325, 154.450 213, 155 213 C 155.550 213, 156 212.325, 156 211.500 C 156 210.675, 155.550 210, 155 210 C 154.450 210, 154 210.675, 154 211.500 M 129 228.661 C 112.315 236.438, 113.862 240.069, 130.801 232.889 C 142.263 228.030, 141.627 228.484, 139.690 226.548 C 137.708 224.565, 137.844 224.538, 129 228.661"
          stroke="none" fill="#2E658E" fill-rule="evenodd"/>
</svg>