<svg xmlns="http://www.w3.org/2000/svg" width="120" height="120" viewBox="0 0 120 120" version="1.1">
    <path d="M 56.342 2.567 C 50.681 8.228, 55.276 24.691, 61.394 20.668 C 66.112 17.565, 66.886 7.667, 62.814 2.491 C 60.357 -0.633, 59.533 -0.624, 56.342 2.567 M 94.149 17.677 C 92.306 18.596, 89.685 21.030, 88.324 23.086 C 82.302 32.186, 90.087 37.148, 97.989 29.246 C 106.155 21.080, 103.481 13.023, 94.149 17.677 M 17.750 18.088 C 13.420 20.590, 17.474 29.365, 24.747 33.234 C 29.699 35.868, 32.296 35.018, 32.822 30.588 C 33.558 24.405, 22.578 15.299, 17.750 18.088 M 53.920 25 C 32.958 28.596, 19.551 50.527, 25.881 70.864 C 35.672 102.324, 78.804 105.051, 92.769 75.094 C 104.664 49.579, 81.883 20.203, 53.920 25 M 52.969 37.487 C 35.378 43.099, 30.315 66.813, 44.206 78.526 C 60.032 91.869, 84.024 80.930, 83.994 60.384 C 83.971 44.340, 68.131 32.650, 52.969 37.487 M 102.272 55.156 C 98.065 57.290, 98.239 61.877, 102.602 63.865 C 108.097 66.368, 121 64.006, 121 60.497 C 121 55.475, 108.610 51.942, 102.272 55.156 M 6.413 55.945 C 1.759 57.054, 1 57.819, 1 61.399 C 1 66.736, 10.992 69.124, 18.050 65.474 C 26.200 61.259, 16.714 53.491, 6.413 55.945 M 88.200 87.200 C 83.765 91.635, 92.883 103.519, 100.184 102.818 C 102.786 102.568, 103.571 101.995, 103.832 100.155 C 104.893 92.663, 92.778 82.622, 88.200 87.200 M 26.502 88.575 C 17.973 93.023, 14.080 102.621, 20.039 104.512 C 27.276 106.809, 38.475 91.466, 32.066 88.035 C 29.669 86.753, 30.074 86.713, 26.502 88.575 M 58.736 100.250 C 52.708 104.827, 54.447 120, 61 120 C 67.665 120, 69.293 103.368, 62.961 99.979 C 60.667 98.751, 60.714 98.748, 58.736 100.250"
          stroke="none" fill="#ecd44c" fill-rule="evenodd"/>
</svg>