<svg xmlns="http://www.w3.org/2000/svg" width="120" height="120" viewBox="0 0 120 120" version="1.1">
    <path d="M 40.013 18.271 C 19.435 28.515, 7.812 53.503, 13.489 75.297 C 25.477 121.323, 86.824 128.069, 108.033 85.694 C 111.765 78.239, 112.960 74.345, 111.250 75.215 C 70.384 95.990, 27.334 60.042, 46.580 21.213 C 50.263 13.781, 49.615 13.491, 40.013 18.271"
          stroke="none" fill="#5c8cb4" fill-rule="evenodd"/>
    <path d="M 64.544 27.130 C 62.083 30.054, 61.602 30.217, 57.210 29.615 L 52.509 28.971 56.160 31.980 C 59.533 34.760, 59.774 35.314, 59.330 39.245 L 58.849 43.500 61.689 40.201 C 64.346 37.114, 64.818 36.944, 69.015 37.567 L 73.500 38.233 70.093 35.304 C 66.973 32.621, 66.734 32.023, 67.248 28.187 C 67.921 23.173, 67.885 23.159, 64.544 27.130 M 80.566 46.014 L 78.774 52.924 73.483 54.462 C 70.573 55.308, 67.726 56, 67.155 56 C 63.327 56, 66.159 58.069, 71.920 59.480 L 78.827 61.173 80.521 68.087 C 82.589 76.525, 83.364 76.707, 84.972 69.134 C 86.622 61.358, 86.462 61.523, 94.500 59.230 C 101.899 57.119, 101.871 57.041, 92.769 54.481 C 87.055 52.874, 84 48.309, 84 41.378 C 84 37.491, 82.118 40.033, 80.566 46.014"
          stroke="none" fill="#e4dc6c" fill-rule="evenodd"/>
</svg>