<svg xmlns="http://www.w3.org/2000/svg" width="512" height="512" viewBox="0 0 512 512" version="1.1">
    <path d="M 174.013 49.691 C 177.031 51.721, 180.320 54.421, 181.323 55.691 C 182.325 56.961, 183.632 58, 184.228 58 C 184.823 58, 184.453 57.045, 183.405 55.878 C 181.291 53.524, 170.562 46, 169.318 46 C 168.883 46, 170.996 47.661, 174.013 49.691 M 99.597 54.500 C 99.989 55.600, 100.636 56.950, 101.033 57.500 C 101.430 58.050, 102.097 59.625, 102.515 61 C 102.934 62.375, 105.044 67.325, 107.206 72 C 109.367 76.675, 111.508 81.400, 111.963 82.500 C 112.418 83.600, 113.920 86.975, 115.301 90 C 116.682 93.025, 118.786 97.750, 119.978 100.500 C 121.170 103.250, 122.787 106.918, 123.572 108.651 C 124.358 110.384, 125 112.045, 125 112.342 C 125 112.639, 126.800 116.706, 129 121.380 C 131.200 126.054, 133 130.301, 133 130.818 C 133 131.335, 134.090 134.175, 135.423 137.129 C 138.175 143.228, 172.019 220.272, 190.623 262.785 C 201.939 288.645, 204.973 296.175, 201.715 290.316 C 199.900 287.053, 198.527 287.561, 198.513 291.501 C 198.506 293.425, 198.765 295, 199.089 295 C 202.008 295.001, 202.513 309.574, 199.650 311.176 C 198.719 311.697, 198.219 312.545, 198.538 313.061 C 198.857 313.578, 198.244 314, 197.176 314 C 194.263 314, 193.834 317.495, 196.445 319.948 C 198.968 322.319, 199.325 324.661, 197.281 325.446 C 196.519 325.738, 196.152 325.563, 196.464 325.058 C 196.777 324.552, 196.525 323.824, 195.905 323.441 C 193.977 322.250, 192.955 325.293, 194.653 327.169 C 195.507 328.113, 195.970 329.473, 195.682 330.192 C 195.308 331.125, 195.135 331.052, 195.079 329.938 C 195.036 329.079, 193.650 327.378, 192 326.158 C 188.359 323.466, 188.282 322.722, 191.466 321.018 C 193.510 319.924, 194.237 319.926, 195.716 321.027 C 196.697 321.757, 196.264 321.133, 194.754 319.640 C 192.572 317.483, 191.623 317.132, 190.135 317.928 C 189.105 318.479, 187.979 318.645, 187.631 318.298 C 185.077 315.743, 189 327.787, 192.176 332.247 C 193.395 333.960, 193.860 335.032, 193.209 334.629 C 192.557 334.226, 190.851 331.895, 189.417 329.448 C 187.983 327.002, 186.403 325, 185.905 325 C 184.335 325, 184.921 328.080, 187.063 331.089 C 188.198 332.682, 188.817 334.487, 188.438 335.100 C 187.709 336.280, 189.884 344, 190.946 344 C 191.290 344, 191.571 344.867, 191.571 345.927 C 191.571 346.986, 191.218 347.635, 190.786 347.368 C 190.354 347.100, 190 347.373, 190 347.972 C 190 348.572, 190.672 349.321, 191.494 349.636 C 192.316 349.952, 192.743 350.607, 192.442 351.093 C 192.142 351.579, 192.560 351.722, 193.371 351.411 C 194.256 351.072, 195.308 351.708, 196 353 C 196.662 354.236, 197.755 354.924, 198.565 354.614 C 199.350 354.312, 199.871 354.610, 199.738 355.286 C 199.607 355.954, 200.283 356.438, 201.239 356.363 C 202.196 356.288, 202.749 356.597, 202.468 357.051 C 202.188 357.506, 202.714 358.300, 203.639 358.818 C 205.154 359.666, 205.107 359.873, 203.160 360.914 C 197.279 364.062, 201.718 367.870, 209.243 366.133 C 216.032 364.566, 231 373.681, 231 379.382 C 231 380.095, 232.150 381.203, 233.556 381.844 C 236.105 383.005, 236.142 385.375, 233.596 384.398 C 232.756 384.076, 232.079 384.806, 231.784 386.351 C 231.307 388.845, 233.553 389.059, 235.153 386.672 C 235.511 386.136, 236.718 387.486, 237.833 389.673 L 239.861 393.648 236.546 394.847 L 233.231 396.046 236.615 402.655 C 240.295 409.841, 240.499 410.427, 239 409.500 C 238.450 409.160, 237.947 409.471, 237.882 410.191 C 237.817 410.911, 237.476 410.155, 237.124 408.512 C 236.749 406.759, 235.741 405.381, 234.685 405.178 C 233.135 404.879, 233.306 405.664, 235.928 410.857 C 239.846 418.619, 245 426.745, 245 425.161 C 245 424.484, 244.310 422.876, 243.467 421.589 C 242.623 420.302, 241.762 418.405, 241.553 417.374 C 241.343 416.344, 240.874 414.600, 240.509 413.500 C 240.020 412.025, 240.588 412.305, 242.673 414.569 C 253.561 426.391, 254.749 424.518, 246.500 408.538 C 239.304 394.598, 239.394 394.830, 241.494 395.636 C 242.316 395.952, 242.740 396.612, 242.435 397.105 C 242.131 397.597, 242.434 398, 243.108 398 C 243.782 398, 244.050 398.283, 243.703 398.630 C 242.751 399.582, 253.813 420.714, 255.628 421.411 C 256.517 421.752, 256.959 422.663, 256.640 423.496 C 256.327 424.310, 256.393 424.910, 256.786 424.829 C 258.069 424.566, 261 426.192, 260.551 426.918 C 260.310 427.308, 262.107 427.556, 264.544 427.470 C 267.722 427.358, 269.446 427.835, 270.642 429.157 C 271.559 430.171, 272.915 431, 273.655 431 C 274.395 431, 275 431.477, 275 432.059 C 275 432.641, 274.480 432.797, 273.845 432.405 C 273.124 431.959, 272.963 432.131, 273.415 432.862 C 273.813 433.506, 274.557 433.774, 275.069 433.457 C 275.581 433.141, 276.032 433.696, 276.070 434.691 C 276.133 436.306, 276.233 436.285, 277 434.500 C 277.788 432.666, 278.507 433.791, 278.118 436.250 C 278.053 436.662, 278.477 437, 279.059 437 C 279.641 437, 279.800 437.562, 279.412 438.250 C 278.865 439.220, 278.994 439.234, 279.989 438.314 C 281.417 436.994, 284 438.786, 284 441.095 C 284 441.776, 284.293 442.040, 284.651 441.682 C 285.009 441.324, 285.797 441.592, 286.401 442.278 C 287.006 442.963, 287.403 443.347, 287.285 443.130 C 287.167 442.914, 287.515 441.905, 288.059 440.889 C 289.135 438.879, 288.278 433.710, 287 434.500 C 286.568 434.767, 286.568 433.417, 287 431.500 C 287.455 429.485, 287.409 428.247, 286.891 428.567 C 286.134 429.035, 284 425.132, 284 423.280 C 284 422.080, 287.970 426.329, 288.546 428.146 C 288.875 429.182, 289.495 429.812, 289.925 429.547 C 290.354 429.281, 291.559 429.710, 292.603 430.500 C 295.667 432.820, 296.327 432.208, 293.543 429.628 L 290.983 427.255 293.242 425.680 L 295.500 424.105 293.162 424.052 C 290.973 424.003, 290.869 423.730, 291.527 419.750 C 292.411 414.410, 292.667 414, 295.118 414 C 296.218 414, 296.843 413.555, 296.507 413.011 C 296.157 412.445, 296.558 412.277, 297.448 412.618 C 298.304 412.947, 299 412.691, 299 412.048 C 299 411.407, 299.418 411.140, 299.928 411.456 C 300.438 411.771, 301.154 411.089, 301.519 409.939 C 301.884 408.790, 302.438 408.104, 302.749 408.416 C 303.061 408.728, 303.894 408.503, 304.602 407.916 C 305.568 407.114, 305.896 407.302, 305.925 408.674 C 306.105 417.353, 309.176 423.801, 310.847 419.008 C 311.833 416.181, 310.197 410.137, 308.819 411.515 C 308.552 411.781, 308.403 411.063, 308.488 409.920 C 308.643 407.814, 310.829 405.776, 312.094 406.558 C 312.473 406.793, 312.631 408.563, 312.444 410.492 C 312.247 412.519, 312.553 414, 313.168 414 C 313.754 414, 314.007 413.136, 313.731 412.080 C 313.325 410.526, 313.701 410.211, 315.710 410.425 C 318.724 410.747, 328.127 417.986, 327.290 419.340 C 326.960 419.873, 327.168 420.014, 327.752 419.654 C 328.335 419.293, 328.625 417.986, 328.396 416.749 C 328.139 415.366, 328.630 415.848, 329.669 418 C 330.598 419.925, 331.278 421.837, 331.179 422.250 C 331.081 422.663, 331.477 423, 332.059 423 C 332.641 423, 332.840 423.450, 332.500 424 C 332.160 424.550, 332.359 425, 332.941 425 C 333.523 425, 334 425.477, 334 426.059 C 334 426.641, 333.480 426.797, 332.845 426.405 C 332.146 425.972, 331.962 426.129, 332.378 426.802 C 332.755 427.413, 333.798 427.631, 334.696 427.286 C 335.787 426.868, 336.088 427.048, 335.605 427.830 C 335.207 428.474, 335.359 429, 335.941 429 C 336.541 429, 337.084 426.508, 337.194 423.250 C 337.332 419.134, 337.561 420.341, 338 427.500 C 338.445 434.771, 338.666 435.915, 338.806 431.691 C 338.913 428.496, 339.390 426.123, 339.866 426.417 C 340.342 426.711, 340.506 428.201, 340.229 429.726 C 339.953 431.252, 340.079 432.172, 340.509 431.771 C 342.326 430.078, 342.882 420.927, 341.455 416.223 C 340.667 413.625, 340.017 411.412, 340.011 411.304 C 340.005 411.197, 342.537 411.236, 345.638 411.392 C 350.553 411.639, 351.042 411.504, 349.447 410.338 C 348.441 409.602, 348.143 409, 348.786 409 C 350.491 409, 353.299 413.707, 352.432 415.111 C 351.963 415.869, 352.115 416.047, 352.845 415.595 C 353.480 415.203, 354 415.284, 354 415.774 C 354 416.265, 354.655 416.667, 355.456 416.667 C 356.447 416.667, 356.649 416.194, 356.087 415.191 C 354.974 413.202, 355.929 409.844, 357.364 410.703 C 358.113 411.152, 358.088 410.875, 357.292 409.890 C 355.999 408.291, 356.626 404, 358.152 404 C 358.669 404, 358.617 404.848, 358.032 405.939 C 357.291 407.324, 357.325 408.083, 358.152 408.594 C 358.788 408.987, 359.044 408.881, 358.720 408.357 C 358.397 407.833, 358.527 406.766, 359.009 405.986 C 359.537 405.131, 359.462 404.057, 358.820 403.284 C 358.056 402.362, 358.088 402, 358.937 402 C 359.586 402, 359.793 401.474, 359.395 400.830 C 358.913 400.051, 359.211 399.867, 360.285 400.279 C 361.418 400.714, 361.733 400.467, 361.342 399.449 C 361.036 398.652, 361.235 398, 361.785 398 C 362.334 398, 363.066 396.875, 363.411 395.500 C 363.756 394.125, 364.506 393, 365.078 393 C 365.650 393, 365.833 393.563, 365.485 394.250 C 365.137 394.938, 365.492 394.719, 366.275 393.766 C 367.057 392.812, 368.028 392.362, 368.432 392.766 C 368.836 393.169, 369.017 392.825, 368.833 392 C 368.650 391.175, 368.988 390.587, 369.583 390.694 C 370.179 390.801, 370.715 390.351, 370.775 389.694 C 370.834 389.037, 371.100 387.600, 371.365 386.500 C 371.630 385.400, 371.881 383.911, 371.923 383.191 C 371.966 382.471, 372.342 382.094, 372.761 382.352 C 373.180 382.611, 373.555 381.400, 373.595 379.661 C 373.868 367.837, 374.271 364.415, 374.908 368.500 C 375.587 372.855, 378 370.910, 378 366.007 C 378 364.655, 378.420 364.142, 379.155 364.595 C 379.826 365.011, 380.039 364.872, 379.664 364.265 C 379.309 363.691, 379.491 361.034, 380.067 358.361 C 380.644 355.687, 381.117 352.703, 381.118 351.728 C 381.120 350.754, 381.544 350.218, 382.061 350.537 C 382.577 350.857, 383.056 350.641, 383.125 350.059 C 383.194 349.477, 383.327 348.438, 383.420 347.750 C 383.514 347.063, 384.209 346.638, 384.965 346.806 C 386.111 347.062, 386.119 346.848, 385.012 345.514 C 383.921 344.200, 383.917 343.700, 384.989 342.708 C 386.029 341.745, 386.130 341.804, 385.486 343 C 385.027 343.854, 385.058 344.154, 385.560 343.697 C 386.044 343.255, 386.453 341.905, 386.470 340.697 C 386.488 339.412, 387.050 338.614, 387.824 338.775 C 388.553 338.926, 388.851 338.569, 388.488 337.981 C 388.125 337.393, 388.429 336.171, 389.164 335.264 C 390.093 334.118, 390.123 333.842, 389.261 334.360 C 388.421 334.865, 388.214 334.607, 388.616 333.558 C 388.943 332.707, 389.725 332.320, 390.355 332.698 C 390.985 333.075, 390.825 332.536, 390 331.500 C 389.126 330.402, 389.021 329.929, 389.750 330.367 C 390.438 330.780, 391 330.641, 391 330.059 C 391 329.477, 391.477 329, 392.059 329 C 392.641 329, 392.780 329.562, 392.367 330.250 C 391.839 331.130, 392.108 331.101, 393.276 330.154 C 394.189 329.414, 394.897 328.514, 394.850 328.154 C 394.464 325.240, 395.095 323.594, 396.057 325 C 396.902 326.236, 397.032 326.147, 396.792 324.500 C 396.631 323.400, 396.988 322.587, 397.583 322.694 C 398.179 322.801, 398.667 322.282, 398.667 321.540 C 398.667 320.752, 398.043 320.430, 397.169 320.765 C 396.273 321.109, 395.933 320.917, 396.322 320.287 C 396.680 319.709, 396.001 318, 394.813 316.490 L 392.654 313.744 394.888 314.940 C 397.102 316.125, 397.108 316.110, 395.568 313.131 C 394.713 311.479, 394.290 309.407, 394.627 308.528 C 395.175 307.102, 393.914 303.862, 389.240 294.681 C 388.451 293.130, 388.074 291.593, 388.403 291.264 C 388.731 290.936, 389 291.106, 389 291.642 C 389 292.179, 389.579 293.409, 390.286 294.376 C 391.456 295.977, 391.562 295.910, 391.462 293.633 C 391.402 292.256, 390.827 290.497, 390.185 289.723 C 388.777 288.027, 389.600 287.011, 392.417 286.968 C 394.305 286.940, 394.219 286.688, 391.500 284.280 C 389.850 282.818, 389.212 281.890, 390.083 282.216 C 391.043 282.576, 391.667 282.273, 391.667 281.449 C 391.667 280.700, 391.383 280.263, 391.036 280.478 C 389.759 281.267, 387.626 279.081, 386.578 275.910 C 384.790 270.503, 383.023 271.096, 382.837 277.167 L 382.674 282.500 382.033 277 L 381.391 271.500 380.933 276.500 L 380.475 281.500 379.191 277.220 C 378.082 273.523, 376 272.152, 376 275.118 C 376 275.668, 376.483 275.819, 377.074 275.454 C 377.667 275.088, 377.577 275.705, 376.874 276.831 C 376.173 277.953, 375.189 278.617, 374.688 278.307 C 374.187 277.997, 373.384 278.364, 372.904 279.122 C 372.180 280.264, 372.014 280.243, 371.932 279 C 371.878 278.175, 371.723 276.508, 371.587 275.296 C 371.452 274.084, 371.683 273.304, 372.101 273.563 C 372.520 273.821, 373.196 273.492, 373.604 272.832 C 374.532 271.330, 374.734 261.089, 373.842 260.750 C 373.151 260.487, 372.834 258.747, 370.996 245.106 C 370.116 238.570, 369.382 236.308, 367.683 234.889 C 365.360 232.950, 363.988 232.523, 364.020 233.750 C 364.080 236.091, 367.023 256.498, 367.530 258.096 C 367.863 259.143, 367.767 260, 367.317 259.999 C 366.868 259.999, 365.489 253.586, 364.254 245.749 C 362.428 234.159, 361.635 231.244, 360.004 230.128 C 358.902 229.373, 357.932 228.023, 357.850 227.128 C 357.767 226.233, 357.372 227.525, 356.971 230 C 356.340 233.892, 356.259 233.532, 356.371 227.341 C 356.442 223.404, 356.890 220.254, 357.367 220.341 C 357.844 220.428, 358.370 219.687, 358.537 218.694 C 358.761 217.354, 358.519 217.155, 357.596 217.920 C 356.730 218.639, 355.934 218.580, 354.974 217.726 C 353.948 216.813, 353.967 216.994, 355.048 218.437 C 356.353 220.179, 356.326 220.309, 354.782 219.731 C 353.837 219.377, 352.791 219.529, 352.458 220.068 C 352.124 220.608, 352.222 220.926, 352.676 220.775 C 353.441 220.520, 354 221.264, 354 222.535 C 354 222.830, 353.127 222.603, 352.061 222.032 C 350.713 221.311, 349.922 221.317, 349.468 222.052 C 349.033 222.756, 347.927 222.570, 346.157 221.495 C 343.566 219.921, 343.550 219.926, 345.528 221.691 C 346.643 222.686, 347.634 224.595, 347.730 225.933 C 347.825 227.271, 348.581 228.746, 349.410 229.210 C 350.317 229.717, 350.664 230.739, 350.281 231.776 C 349.277 234.500, 347.698 235.032, 345.295 233.458 C 344.071 232.656, 342.353 232, 341.476 232 C 340.599 232, 340.157 231.555, 340.493 231.011 C 340.834 230.459, 340.463 230.269, 339.653 230.580 C 338.855 230.886, 337.892 230.634, 337.512 230.020 C 337.009 229.206, 336.433 229.226, 335.388 230.093 C 334.225 231.058, 334.073 230.974, 334.582 229.648 C 335.314 227.740, 331.176 225.688, 329.426 227.091 C 328.799 227.594, 327.809 227.442, 327.046 226.726 C 326.328 226.052, 326.526 226.738, 327.485 228.250 C 329.487 231.405, 330.187 231.775, 329.374 229.250 C 328.915 227.823, 329.001 227.768, 329.840 228.952 C 330.405 229.751, 330.660 230.741, 330.406 231.152 C 330.152 231.563, 332.681 235.750, 336.027 240.457 C 339.448 245.272, 341.799 249.517, 341.400 250.162 C 340.962 250.870, 341.133 251.036, 341.845 250.596 C 343.308 249.691, 351.605 262.687, 351.177 265.213 C 351.009 266.203, 351.576 267.284, 352.436 267.614 C 354.418 268.374, 354.415 269.442, 352.429 271.429 C 350.426 273.431, 351.389 273.447, 354.421 271.460 C 356.706 269.963, 356.877 270.067, 360.594 275.210 C 362.696 278.120, 367.473 284.639, 371.208 289.698 C 378.667 299.799, 379.059 300.982, 375.750 303.401 C 373.648 304.937, 373.720 304.940, 376.843 303.449 C 378.682 302.571, 380.290 301.998, 380.417 302.176 C 386.702 310.988, 386.552 313.380, 377.476 348.987 C 375.014 358.645, 373 368.640, 373 371.197 C 373 374.795, 372.386 376.576, 370.287 379.071 C 368.795 380.844, 367.473 382.980, 367.351 383.817 C 367.228 384.655, 365.420 386.951, 363.333 388.920 L 359.538 392.500 363.019 388.500 L 366.500 384.500 362.789 387.908 C 360.748 389.783, 359.324 391.715, 359.625 392.202 C 360.408 393.469, 357.976 396.103, 356.732 395.334 C 356.160 394.981, 355.968 395.139, 356.306 395.686 C 356.645 396.234, 355.477 397.740, 353.711 399.032 C 351.383 400.736, 350.913 400.873, 352 399.530 C 353.413 397.786, 353.374 397.757, 351.315 399.039 C 350.113 399.788, 349.337 400.737, 349.591 401.148 C 349.846 401.559, 349.029 401.647, 347.777 401.343 C 346.525 401.039, 344.712 400.742, 343.750 400.681 C 342.788 400.621, 342 400.248, 342 399.853 C 342 399.037, 337.929 397.488, 336.676 397.827 C 336.222 397.949, 336.184 397.512, 336.590 396.855 C 337.098 396.033, 336.793 395.866, 335.612 396.319 C 334.668 396.681, 334.142 396.579, 334.442 396.093 C 335.145 394.957, 332.154 393.787, 330.755 394.651 C 330.079 395.069, 329.990 394.826, 330.510 393.985 C 331.109 393.015, 330.868 392.836, 329.612 393.319 C 328.456 393.762, 328.130 393.599, 328.612 392.819 C 329.095 392.038, 328.769 391.875, 327.612 392.319 C 326.456 392.762, 326.130 392.599, 326.612 391.819 C 327.095 391.038, 326.769 390.875, 325.612 391.319 C 324.456 391.762, 324.130 391.599, 324.612 390.819 C 325.095 390.038, 324.769 389.875, 323.612 390.319 C 322.456 390.762, 322.130 390.599, 322.612 389.819 C 323.095 389.038, 322.769 388.875, 321.612 389.319 C 320.668 389.681, 320.130 389.598, 320.417 389.135 C 320.703 388.671, 319.856 387.800, 318.535 387.198 C 316.736 386.378, 316.010 386.405, 315.645 387.302 C 315.377 387.961, 315.122 387.681, 315.079 386.680 C 315.022 385.374, 314.365 384.958, 312.750 385.204 C 311.512 385.393, 310.607 386.083, 310.738 386.738 C 310.869 387.392, 310.419 387.727, 309.738 387.482 C 309.057 387.236, 307.375 387.967, 306 389.105 C 304.625 390.242, 304.132 390.840, 304.905 390.432 C 305.839 389.939, 306.067 390.083, 305.585 390.862 C 305.187 391.506, 304.368 391.728, 303.765 391.355 C 303.162 390.982, 301.569 391.987, 300.225 393.589 C 298.880 395.190, 298.104 395.825, 298.500 395 C 298.896 394.175, 298.158 394.646, 296.860 396.047 C 295.562 397.448, 294.725 398.102, 295 397.500 C 295.275 396.898, 294.438 397.552, 293.140 398.953 C 291.842 400.354, 291.104 400.825, 291.500 400 C 291.896 399.175, 291.158 399.646, 289.860 401.047 C 288.562 402.448, 287.725 403.102, 288 402.500 C 288.275 401.898, 287.438 402.552, 286.140 403.953 C 284.842 405.354, 284.141 405.825, 284.582 405 C 285.662 402.980, 282.507 405.256, 279.140 408.927 C 277.842 410.342, 277.107 410.897, 277.505 410.160 C 277.903 409.423, 276.490 409.938, 274.365 411.304 C 272.239 412.671, 268.700 414.085, 266.500 414.448 C 264.300 414.810, 261.703 415.341, 260.728 415.628 C 258.831 416.185, 257.607 413.903, 250.008 395.636 C 246.066 386.158, 245.913 382.839, 249.346 381.178 C 250.530 380.604, 250.938 380.105, 250.250 380.068 C 249.563 380.030, 249 379.395, 249 378.655 C 249 377.340, 245.940 374, 244.735 374 C 244.400 374, 243.965 375.462, 243.767 377.250 L 243.407 380.500 241.366 376.254 C 240.243 373.919, 239.003 372.331, 238.609 372.724 C 238.216 373.117, 238.220 372.591, 238.617 371.555 C 239.117 370.254, 238.982 369.893, 238.181 370.388 C 237.401 370.870, 237.238 370.544, 237.681 369.388 C 238.102 368.292, 237.951 367.912, 237.263 368.337 C 236.566 368.768, 236.386 368.241, 236.751 366.845 C 237.171 365.238, 236.980 364.894, 236.003 365.498 C 235.176 366.009, 234.933 365.917, 235.346 365.249 C 235.706 364.666, 233.976 359.355, 231.501 353.447 C 227.030 342.777, 226.141 340.124, 228 343 C 228.842 344.303, 228.971 344.286, 228.985 342.864 C 229.016 339.539, 231.660 335.701, 232.536 337.709 C 232.966 338.694, 233.246 339.837, 233.159 340.250 C 233.071 340.663, 233.420 341, 233.933 341 C 234.446 341, 235.162 341.934, 235.524 343.075 C 235.886 344.217, 236.377 344.956, 236.615 344.719 C 236.852 344.481, 235.461 340.582, 233.523 336.055 C 231.586 331.527, 230 327.433, 230 326.956 C 230 326.479, 227.975 321.348, 225.500 315.554 C 220.905 304.797, 219.940 301.385, 222.250 304.071 C 222.938 304.870, 223.396 305.339, 223.268 305.113 C 223.141 304.888, 223.947 303.914, 225.059 302.949 C 226.534 301.670, 226.732 301.054, 225.791 300.676 C 224.802 300.279, 224.793 300.139, 225.750 300.079 C 226.438 300.036, 227 299.531, 227 298.958 C 227 296.301, 229.416 295.227, 231.831 296.809 C 234.301 298.428, 226.110 281.416, 208.007 247.335 C 201.901 235.840, 200.381 232.242, 201.726 232.468 C 202.702 232.632, 203.387 233.268, 203.250 233.883 C 203.112 234.497, 203.450 235, 204 235 C 205.708 235, 205.577 234.717, 180.382 184 C 154.222 131.342, 140.583 101.529, 141.527 99.068 C 141.846 98.239, 141.784 97.883, 141.391 98.276 C 140.320 99.346, 136.980 91.215, 137.709 89.315 C 138.090 88.322, 137.935 87.922, 137.316 88.305 C 136.753 88.653, 135.796 87.848, 135.190 86.517 C 134.237 84.425, 134.319 84.167, 135.793 84.617 C 137.042 84.998, 136.963 84.784, 135.500 83.819 C 134.400 83.094, 133.455 81.938, 133.400 81.250 C 133.168 78.344, 132.949 77.914, 132 78.500 C 131.113 79.048, 130.818 78.358, 131.085 76.362 C 131.184 75.623, 128.885 74.038, 127.683 74.015 C 127.233 74.007, 127.171 75.013, 127.546 76.250 C 128.026 77.839, 127.532 77.503, 125.863 75.105 C 124.563 73.238, 119.751 69.131, 115.170 65.980 C 110.588 62.828, 105.049 58.506, 102.861 56.375 C 100.183 53.766, 99.116 53.153, 99.597 54.500 M 198 69.500 C 203.755 75.275, 208.633 80, 208.840 80 C 209.047 80, 205.578 76.015, 201.131 71.144 C 196.684 66.273, 193.373 61.926, 193.773 61.483 C 194.173 61.041, 193.988 60.972, 193.363 61.329 C 192.738 61.686, 191.671 61.308, 190.991 60.489 C 190.311 59.670, 189.256 59, 188.645 59 C 188.035 59, 192.245 63.725, 198 69.500 M 202.500 67.518 C 203.600 68.414, 205.400 69.588, 206.500 70.128 L 208.500 71.110 206.500 69.482 C 205.400 68.586, 203.600 67.412, 202.500 66.872 L 200.500 65.890 202.500 67.518 M 210.133 72.145 C 211.031 72.890, 213.850 74.958, 216.398 76.740 C 220.424 79.556, 220.879 80.222, 219.875 81.828 C 218.903 83.385, 219.507 84.846, 223.705 91.088 C 226.447 95.165, 228.698 99.175, 228.709 100 C 228.719 100.825, 235.108 110.725, 242.906 122 C 259.713 146.300, 262.429 149.893, 256.890 140.500 C 254.620 136.650, 252.564 133.162, 252.322 132.750 C 252.080 132.338, 252.112 132, 252.394 132 C 252.675 132, 257.689 138.300, 263.535 146 C 269.382 153.700, 274.301 160, 274.467 160 C 274.633 160, 273.485 157.525, 271.916 154.500 C 270.346 151.475, 269.215 149, 269.403 149 C 269.889 149, 288.032 173.268, 298.372 187.750 C 303.183 194.488, 307.371 200, 307.678 200 C 307.986 200, 307.143 198.538, 305.806 196.750 C 304.469 194.963, 284.866 167.625, 262.245 136 C 234.659 97.435, 220.025 77.815, 217.807 76.421 C 211.575 72.503, 208.501 70.790, 210.133 72.145 M 153.548 111.161 C 161.569 126.747, 175.621 154.800, 184.776 173.500 C 205.814 216.478, 232.907 270.190, 234.207 271.500 C 234.753 272.050, 231.803 265.688, 227.650 257.362 C 219.984 241.993, 218.633 235.044, 223.297 234.985 C 224.133 234.974, 224.093 234.711, 223.165 234.123 C 221.376 232.989, 221.476 231.873, 223.466 230.759 C 224.842 229.989, 224.897 229.575, 223.805 228.232 C 222.695 226.865, 222.745 226.717, 224.143 227.240 C 225.509 227.752, 225.750 227.203, 225.574 223.981 C 225.458 221.850, 225.738 220.338, 226.198 220.622 C 226.657 220.906, 226.820 221.482, 226.560 221.902 C 226.301 222.323, 226.719 222.667, 227.490 222.667 C 229.231 222.667, 229.151 222.512, 218.680 205.609 C 211.685 194.317, 208.353 186.864, 211.044 188.527 C 211.522 188.822, 211.665 189.837, 211.362 190.782 C 210.939 192.101, 211.037 192.185, 211.781 191.142 C 212.315 190.396, 212.538 188.200, 212.277 186.263 C 211.969 183.983, 212.278 182.400, 213.151 181.776 C 214.143 181.067, 213.999 180.975, 212.609 181.429 C 211.166 181.899, 210.962 181.744, 211.749 180.773 C 212.655 179.654, 171.203 107.760, 166.135 101.661 C 164.956 100.242, 141.935 84.098, 139.754 83.161 C 139.320 82.974, 145.527 95.574, 153.548 111.161 M 213.667 87.826 L 210.900 90.714 222.416 109.861 C 228.750 120.392, 238.566 135.194, 244.230 142.754 C 249.894 150.314, 255.835 158.577, 257.434 161.116 C 263.035 170.011, 263.862 168.082, 258.693 158.179 C 255.695 152.434, 254.391 149.110, 255.484 150 C 257.213 151.407, 257.253 151.360, 256.126 149.245 C 253.338 144.014, 237.935 119.353, 228.282 104.668 C 222.558 95.961, 217.551 87.959, 217.154 86.887 C 216.477 85.058, 216.263 85.116, 213.667 87.826 M 223.090 94.013 C 225.410 97.320, 227.488 99.846, 227.708 99.626 C 228.128 99.205, 220.017 88, 219.292 88 C 219.061 88, 220.770 90.706, 223.090 94.013 M 198.500 106 C 199.353 107.650, 200.281 109, 200.561 109 C 200.841 109, 200.589 108.100, 200 107 C 199.274 105.644, 199.263 105, 199.965 105 C 200.534 105, 201 104.550, 201 104 C 201 103.450, 200.088 103, 198.974 103 C 197.045 103, 197.023 103.143, 198.500 106 M 222.608 117 C 227.378 124.975, 231.734 131.950, 232.287 132.500 C 233.643 133.848, 233.463 133.515, 225.241 119.484 C 221.368 112.875, 217.240 106.350, 216.067 104.984 C 214.894 103.618, 217.838 109.025, 222.608 117 M 223.872 133.500 C 224.412 134.600, 225.586 136.400, 226.482 137.500 L 228.110 139.500 227.128 137.500 C 226.588 136.400, 225.414 134.600, 224.518 133.500 L 222.890 131.500 223.872 133.500 M 228.872 141.500 C 229.412 142.600, 230.586 144.400, 231.482 145.500 L 233.110 147.500 232.128 145.500 C 231.588 144.400, 230.414 142.600, 229.518 141.500 L 227.890 139.500 228.872 141.500 M 188.090 189.500 C 188.090 190.050, 189.175 192.525, 190.500 195 C 191.825 197.475, 192.910 199.050, 192.910 198.500 C 192.910 197.950, 191.825 195.475, 190.500 193 C 189.175 190.525, 188.090 188.950, 188.090 189.500 M 327.435 201.110 C 329.592 203.525, 332.190 205.973, 333.209 206.552 C 334.229 207.131, 334.711 207.990, 334.281 208.462 C 333.852 208.934, 334.036 209.014, 334.690 208.638 C 335.345 208.263, 336.808 208.950, 337.940 210.166 C 341.256 213.726, 340.305 210.263, 336.750 205.834 C 334.962 203.607, 331.253 200.645, 328.507 199.253 L 323.515 196.720 327.435 201.110 M 310 204 C 311.175 205.650, 312.361 207, 312.636 207 C 312.911 207, 312.175 205.650, 311 204 C 309.825 202.350, 308.639 201, 308.364 201 C 308.089 201, 308.825 202.350, 310 204 M 194.287 204.750 C 194.509 205.162, 198.592 213.488, 203.360 223.250 C 211.899 240.736, 216.143 247.889, 209.589 233.750 C 198.749 210.364, 195.581 204, 194.778 204 C 194.285 204, 194.064 204.338, 194.287 204.750 M 315 211 C 316.175 212.650, 317.361 214, 317.636 214 C 317.911 214, 317.175 212.650, 316 211 C 314.825 209.350, 313.639 208, 313.364 208 C 313.089 208, 313.825 209.350, 315 211 M 321.041 219.407 C 322.920 222.024, 324.889 224.431, 325.417 224.757 C 325.944 225.084, 324.838 223.209, 322.959 220.593 C 321.080 217.976, 319.111 215.569, 318.583 215.243 C 318.056 214.916, 319.162 216.791, 321.041 219.407 M 349.105 223.804 C 348.515 224.906, 348.495 226.170, 349.054 227.054 C 350.030 228.595, 350.481 227.280, 350.052 224.150 C 349.938 223.322, 350.339 223.092, 351.088 223.554 C 351.868 224.037, 352.052 223.892, 351.595 223.155 C 350.629 221.590, 350.235 221.693, 349.105 223.804 M 345.666 228.427 C 345.365 229.212, 345.762 230.388, 346.548 231.040 C 347.335 231.693, 347.688 232.695, 347.334 233.268 C 346.958 233.878, 347.176 234.009, 347.862 233.585 C 348.506 233.187, 348.797 232.481, 348.510 232.016 C 348.223 231.551, 348.553 230.920, 349.244 230.615 C 349.935 230.309, 349.600 230.158, 348.500 230.279 C 347.089 230.435, 346.587 229.985, 346.794 228.750 C 347.148 226.643, 346.430 226.437, 345.666 228.427 M 381.889 230.250 C 381.828 231.488, 381.761 233.400, 381.739 234.500 C 381.706 236.125, 381.620 236.172, 381.280 234.750 C 380.809 232.783, 380.771 232.767, 378.582 233.607 C 376.987 234.219, 376.314 238, 377.799 238 C 378.239 238, 378.414 239.582, 378.188 241.516 C 377.962 243.449, 378.135 247.162, 378.571 249.766 L 379.365 254.500 380.051 251 C 380.428 249.075, 380.796 248.287, 380.868 249.250 C 381.347 255.619, 382.722 249.011, 382.897 239.500 C 383.071 229.998, 382.266 222.603, 381.889 230.250 M 379 243 C 379 244.650, 379.372 246, 379.827 246 C 380.282 246, 380.455 244.650, 380.213 243 C 379.971 241.350, 379.599 240, 379.387 240 C 379.174 240, 379 241.350, 379 243 M 213.052 242.583 C 213.121 243.796, 226.880 270.714, 226.948 269.768 C 227 269.034, 214.232 242.898, 213.428 242.095 C 213.193 241.859, 213.024 242.079, 213.052 242.583 M 372.015 244.750 C 372.007 246.537, 372.173 248, 372.383 248 C 373.293 248, 373.679 244.102, 372.893 242.861 C 372.307 241.936, 372.026 242.540, 372.015 244.750 M 299.606 250 C 301.153 253.092, 308.198 264, 308.647 264 C 309.428 264, 303.660 254.133, 301.178 251.223 C 299.900 249.725, 299.193 249.175, 299.606 250 M 381.070 253.667 C 381.032 254.858, 380.594 255.983, 380.099 256.167 C 379.603 256.350, 379.782 257.037, 380.497 257.694 C 382.146 259.209, 383.075 256.452, 381.915 253.484 C 381.174 251.586, 381.138 251.594, 381.070 253.667 M 259.559 256.250 C 259.941 257.488, 260.890 259.751, 261.668 261.279 C 262.445 262.808, 262.769 264.565, 262.386 265.184 C 261.987 265.830, 262.138 266.033, 262.741 265.660 C 263.318 265.303, 264.021 265.612, 264.303 266.346 C 264.840 267.746, 263.733 270.232, 262.638 270.085 C 260.381 269.783, 260.049 270.191, 261.429 271.571 C 263.361 273.504, 263.370 273.667, 261.544 273.667 C 260.743 273.667, 260.363 273.222, 260.698 272.679 C 261.065 272.085, 260.788 272.013, 260.003 272.498 C 258.983 273.128, 259.101 273.601, 260.540 274.653 C 261.553 275.394, 261.857 276, 261.216 276 C 260.402 276, 260.322 276.716, 260.952 278.373 C 261.548 279.941, 261.471 281.129, 260.727 281.873 C 259.891 282.709, 259.902 283, 260.769 283 C 261.448 283, 261.670 283.697, 261.299 284.664 C 260.901 285.700, 261.059 286.082, 261.716 285.676 C 263.183 284.769, 263.918 289.390, 262.666 291.655 C 261.778 293.261, 261.851 293.332, 263.234 292.201 C 264.458 291.201, 264.992 291.179, 265.565 292.106 C 266.037 292.869, 265.886 293.048, 265.155 292.595 C 264.115 291.953, 263.810 292.575, 264.100 294.750 C 264.155 295.163, 264.717 295.350, 265.350 295.167 C 265.982 294.983, 266.166 295.167, 265.759 295.575 C 265.351 295.982, 265.514 296.915, 266.121 297.646 C 266.953 298.648, 266.834 299.127, 265.638 299.585 C 264.277 300.108, 264.250 300.393, 265.454 301.597 C 267.246 303.389, 268.087 303.391, 267.400 301.601 C 267.105 300.832, 267.232 299.975, 267.682 299.697 C 268.132 299.419, 268.565 300.274, 268.644 301.596 C 268.724 302.918, 268.386 304, 267.894 304 C 267.402 304, 267.007 304.788, 267.015 305.750 C 267.028 307.246, 267.172 307.282, 268 306 C 268.862 304.667, 268.973 304.667, 269 306 C 269.026 307.295, 269.156 307.302, 269.946 306.054 C 270.513 305.157, 270.463 303.865, 269.814 302.652 C 268.931 301.003, 269.038 300.801, 270.495 301.360 C 271.843 301.877, 272.075 301.636, 271.552 300.261 C 271.027 298.882, 271.145 298.762, 272.098 299.708 C 273.054 300.656, 273.041 301.246, 272.035 302.458 C 270.865 303.868, 271.283 304.432, 273.262 304.114 C 274.983 303.838, 277.902 310.315, 276.900 312.188 C 276.061 313.754, 276.369 314.124, 278.934 314.637 C 280.595 314.969, 282.466 315.857, 283.091 316.610 C 284.291 318.056, 286 317.600, 286 315.834 C 286 315.258, 285.400 315.016, 284.667 315.298 C 283.933 315.579, 283.333 315.197, 283.333 314.449 C 283.333 313.700, 283.821 313.380, 284.417 313.736 C 285.012 314.092, 284.941 313.694, 284.259 312.850 C 283.576 312.006, 283.351 310.948, 283.759 310.498 C 284.166 310.048, 283.861 310.050, 283.080 310.504 C 282.022 311.118, 281.823 310.904, 282.299 309.664 C 282.653 308.742, 282.453 308, 281.852 308 C 281.255 308, 281.002 307.099, 281.290 305.999 C 281.631 304.694, 281.411 304.198, 280.657 304.573 C 280.021 304.889, 280.254 304.527, 281.176 303.768 C 282.725 302.493, 282.687 302.286, 280.676 301.033 C 278.692 299.798, 278.621 299.825, 279.872 301.339 C 280.627 302.253, 280.788 303, 280.229 303 C 278.705 303, 277.825 299.916, 278.959 298.549 C 279.628 297.743, 279.552 296.895, 278.726 295.953 C 278.052 295.183, 278.502 295.389, 279.726 296.410 C 280.951 297.432, 281.729 298.629, 281.455 299.072 C 281.182 299.515, 281.552 300.242, 282.279 300.689 C 284.283 301.919, 288.028 307.639, 287.304 308.363 C 286.953 308.713, 287.192 309, 287.833 309 C 288.475 309, 289 309.589, 289 310.309 C 289 311.029, 289.676 312.491, 290.502 313.559 C 291.983 315.472, 291.997 315.471, 291.487 313.500 C 291.203 312.400, 291.631 312.850, 292.440 314.500 C 293.248 316.150, 293.930 317.076, 293.955 316.559 C 294.004 315.527, 299.631 324.461, 304.168 332.773 C 306.407 336.878, 306.819 338.469, 306.026 339.951 C 305.466 340.998, 305.281 342.568, 305.615 343.440 C 306.416 345.525, 304.095 348.250, 302.153 347.505 C 299.998 346.678, 291.854 351.167, 292.491 352.832 C 292.771 353.564, 293 354.603, 293 355.141 C 293 355.678, 293.430 355.852, 293.956 355.527 C 294.482 355.202, 294.682 354.335, 294.400 353.599 C 294.094 352.802, 294.800 352.024, 296.150 351.671 C 299.146 350.888, 299.678 351.593, 297.722 353.754 C 295.396 356.325, 291.342 362.043, 289.396 365.500 L 287.706 368.500 290.853 365.144 C 292.584 363.299, 294 361.390, 294 360.903 C 294 360.416, 294.900 359.455, 296 358.768 C 297.100 358.081, 298 356.966, 298 356.291 C 298 355.613, 298.668 355.319, 299.492 355.635 C 300.394 355.982, 301.242 355.476, 301.640 354.354 C 302.002 353.334, 303.425 351.488, 304.804 350.250 C 306.334 348.877, 306.772 348, 305.928 348 C 305.052 348, 305.469 347.077, 307.066 345.480 C 309.376 343.170, 309.871 343.059, 313.008 344.152 L 316.429 345.345 312.965 346.541 C 311.059 347.199, 309.163 347.544, 308.750 347.309 C 308.337 347.074, 308 347.560, 308 348.389 C 308 349.633, 308.530 349.711, 311.031 348.839 C 312.698 348.258, 314.926 348.009, 315.983 348.285 C 317.040 348.562, 318.060 348.321, 318.250 347.750 C 318.486 347.041, 319.230 347.052, 320.602 347.787 C 323.066 349.105, 325.517 347.790, 324.677 345.601 C 324.229 344.434, 324.664 343.992, 326.281 343.970 C 328.313 343.942, 328.348 343.851, 326.695 342.889 C 324.271 341.479, 326.232 339.030, 329.872 338.921 C 331.318 338.878, 331.903 338.604, 331.173 338.312 C 330.393 338.001, 333.389 335.491, 338.431 332.232 C 343.153 329.180, 346.825 326.492, 346.591 326.258 C 345.338 325.005, 326.511 336.144, 326.478 338.159 C 326.465 338.896, 325.678 339.368, 324.728 339.206 C 323.628 339.019, 322.994 339.564, 322.985 340.706 C 322.973 342.115, 322.782 342.204, 322.096 341.122 C 321.616 340.364, 320.779 340.019, 320.235 340.355 C 319.605 340.744, 319.398 338.519, 319.664 334.233 C 319.894 330.530, 320.036 326.600, 319.981 325.500 C 319.492 315.828, 321.932 303.974, 326.091 295.822 C 327.222 293.605, 327.645 292.101, 327.032 292.480 C 326.418 292.860, 324.508 296.319, 322.787 300.167 C 319.888 306.652, 319.573 307.006, 318.495 304.990 C 317.425 302.991, 317.319 303.123, 317.187 306.637 C 317.088 309.282, 316.344 311.031, 314.772 312.316 C 313.522 313.338, 313.139 313.836, 313.920 313.423 C 314.937 312.885, 315.171 313.112, 314.745 314.223 C 314.312 315.351, 314.642 315.645, 315.954 315.302 C 317.600 314.871, 317.762 315.679, 317.792 324.472 L 317.825 334.115 314.710 329.308 C 303.082 311.358, 301.547 308.275, 303.187 306.178 C 304.335 304.710, 304.301 304.655, 302.912 305.738 C 301.338 306.965, 293.012 295.095, 293.775 292.710 C 293.926 292.238, 293.512 292.184, 292.855 292.590 C 292.033 293.098, 291.866 292.793, 292.319 291.612 C 292.681 290.668, 292.579 290.142, 292.093 290.442 C 291.290 290.939, 289.971 288.880, 290.113 287.351 C 290.145 287.006, 289.756 286.448, 289.249 286.112 C 288.742 285.775, 287.041 283.250, 285.469 280.500 C 281.805 274.091, 278.147 268.988, 275.551 266.663 C 274.423 265.653, 274.132 265.160, 274.905 265.568 C 275.862 266.073, 276.069 265.920, 275.554 265.088 C 275.139 264.416, 274.564 264.103, 274.276 264.391 C 273.988 264.679, 272.926 263.922, 271.917 262.707 C 270.339 260.809, 270.380 261.159, 272.211 265.204 C 273.382 267.791, 274.617 269.736, 274.956 269.527 C 275.294 269.318, 275.571 270.020, 275.571 271.087 C 275.571 272.701, 275.175 272.520, 273.206 270.004 C 271.905 268.341, 270.357 267.280, 269.766 267.645 C 269.167 268.015, 268.978 267.844, 269.340 267.259 C 269.697 266.682, 269.361 265.969, 268.594 265.674 C 267.827 265.380, 265.536 262.633, 263.502 259.570 C 259.529 253.583, 258.459 252.682, 259.559 256.250 M 383.625 255.798 C 383.354 256.237, 383.545 257.249, 384.051 258.048 C 384.806 259.242, 384.972 259.179, 384.985 257.691 C 384.994 256.580, 385.446 256.157, 386.155 256.595 C 386.870 257.038, 387.038 256.870, 386.595 256.155 C 385.769 254.818, 384.337 254.646, 383.625 255.798 M 369.436 258 C 369.826 259.375, 370.187 261.063, 370.239 261.750 C 370.291 262.438, 370.717 263, 371.186 263 C 372.249 263, 371.101 257.856, 369.735 256.500 C 369.060 255.829, 368.961 256.324, 369.436 258 M 258.515 265.976 C 258.150 266.567, 258.222 266.985, 258.676 266.906 C 260.697 266.555, 261.373 267.113, 260 268 C 258.718 268.828, 258.754 268.972, 260.250 268.985 C 262.362 269.003, 262.516 267.674, 260.589 266.074 C 259.599 265.253, 258.980 265.223, 258.515 265.976 M 328.667 286.667 C 327.742 287.591, 327.829 290, 328.787 290 C 329.220 290, 329.642 289.100, 329.725 288 C 329.887 285.851, 329.708 285.625, 328.667 286.667 M 392.403 296.532 C 391.998 298.145, 392.235 299.597, 393.020 300.323 C 394.022 301.249, 394.167 301.137, 393.698 299.801 C 393.276 298.599, 393.524 298.264, 394.545 298.656 C 395.339 298.960, 395.694 299.725, 395.334 300.355 C 394.974 300.985, 395.065 301.149, 395.535 300.721 C 396.711 299.651, 397.044 296.855, 395.912 297.554 C 395.410 297.864, 395 297.443, 395 296.618 C 395 293.919, 393.074 293.856, 392.403 296.532 M 397.136 306.493 C 395.068 309.999, 394.068 313.023, 395.973 310.009 C 396.492 309.189, 397.715 308.514, 398.692 308.509 C 400.671 308.499, 401.717 305.317, 400.230 303.830 C 399.620 303.220, 398.497 304.187, 397.136 306.493 M 273 306.059 C 273 306.641, 272.438 306.827, 271.750 306.472 C 271.063 306.117, 271.625 306.807, 273 308.006 C 274.932 309.691, 275.070 310.046, 273.609 309.570 C 271.956 309.032, 271.888 309.160, 273.072 310.587 C 273.922 311.611, 274.565 311.804, 274.799 311.103 C 275.003 310.490, 275.620 310.265, 276.168 310.604 C 276.716 310.943, 276.441 309.821, 275.557 308.110 C 273.906 304.918, 273 304.191, 273 306.059 M 296.416 306.641 C 296.927 307.974, 296.776 308.059, 295.612 307.093 C 294.738 306.368, 293.947 306.277, 293.586 306.861 C 292.702 308.291, 294.048 311.088, 295.259 310.340 C 295.841 309.980, 296.015 310.166, 295.651 310.756 C 295.289 311.342, 297.019 315.250, 299.496 319.440 C 301.973 323.629, 304 327.358, 304 327.724 C 304 329.229, 309.326 333.812, 310.535 333.348 C 311.336 333.041, 311.968 333.748, 312.170 335.174 C 312.502 337.514, 317 339.289, 317 337.080 C 317 335.973, 311.590 327.250, 302.220 313.250 C 296.863 305.245, 295.117 303.258, 296.416 306.641 M 278.651 307.468 C 278.341 308.275, 278.525 309.206, 279.060 309.537 C 279.595 309.868, 279.805 310.506, 279.527 310.956 C 279.249 311.405, 279.805 312.387, 280.761 313.137 C 282.335 314.370, 282.370 314.334, 281.128 312.750 C 280.373 311.788, 280.125 311, 280.578 311 C 281.030 311, 280.895 310.495, 280.278 309.878 C 279.661 309.261, 279.394 308.136, 279.685 307.378 C 279.976 306.620, 279.989 306, 279.714 306 C 279.439 306, 278.960 306.661, 278.651 307.468 M 401.189 310.039 C 399.941 311.201, 399 311.559, 399 310.872 C 399 310.209, 398.730 309.937, 398.400 310.267 C 396.663 312.003, 399.353 312.869, 402.089 311.454 C 403.726 310.607, 404.799 309.484, 404.474 308.957 C 403.692 307.693, 403.714 307.686, 401.189 310.039 M 211.071 311.500 C 211.071 312.050, 211.714 313.625, 212.500 315 C 213.286 316.375, 213.929 317.050, 213.929 316.500 C 213.929 315.950, 213.286 314.375, 212.500 313 C 211.714 311.625, 211.071 310.950, 211.071 311.500 M 391.701 317.664 C 392.131 318.783, 391.957 319.091, 391.170 318.605 C 390.526 318.207, 390 318.359, 390 318.941 C 390 319.523, 390.712 320, 391.583 320 C 392.454 320, 392.960 320.563, 392.708 321.250 C 392.456 321.938, 391.668 322.362, 390.956 322.194 C 389.909 321.946, 389.912 322.189, 390.974 323.469 C 392.170 324.910, 392.446 324.906, 394.076 323.431 C 395.825 321.849, 395.667 318.470, 393.895 319.565 C 393.403 319.869, 393 319.191, 393 318.059 C 393 316.927, 392.564 316, 392.031 316 C 391.499 316, 391.350 316.749, 391.701 317.664 M 176 323.648 C 174.276 324.126, 170.021 330.295, 169.481 333.100 C 169.058 335.295, 174.249 333.259, 175.416 330.771 C 175.744 330.072, 175.761 330.796, 175.454 332.380 C 174.976 334.848, 175.170 335.189, 176.806 334.761 C 177.857 334.486, 179.455 334.675, 180.358 335.180 C 181.383 335.754, 182 335.735, 182 335.131 C 182 334.599, 182.267 333.339, 182.594 332.332 C 183.053 330.919, 182.961 330.820, 182.195 331.896 C 181.142 333.376, 178 332.752, 178 331.063 C 178 330.513, 178.787 330.358, 179.750 330.719 C 181.314 331.305, 181.346 331.186, 180.054 329.598 C 178.789 328.045, 178.793 327.865, 180.083 328.161 C 180.895 328.347, 181.658 328.163, 181.780 327.750 C 182.373 325.732, 181.846 324.845, 180.389 325.404 C 179.236 325.847, 178.942 325.593, 179.357 324.511 C 179.928 323.025, 179.056 322.801, 176 323.648 M 379.593 344.593 C 378.123 350.457, 377.104 355.438, 377.328 355.662 C 377.552 355.886, 378.938 351.271, 380.407 345.407 C 381.877 339.543, 382.896 334.562, 382.672 334.338 C 382.448 334.114, 381.062 338.729, 379.593 344.593 M 308 339.500 C 307.306 340.337, 307.197 341, 307.755 341 C 308.305 341, 309.315 340.325, 310 339.500 C 310.694 338.663, 310.803 338, 310.245 338 C 309.695 338, 308.685 338.675, 308 339.500 M 367.015 354.193 C 366.995 355.099, 371.070 362, 371.624 362 C 371.859 362, 371.381 360.762, 370.562 359.250 C 368.524 355.487, 367.034 353.361, 367.015 354.193 M 272.500 357.041 C 269.039 358.678, 268.904 358.851, 271.500 358.328 C 275.022 357.618, 280.186 355.064, 278 355.114 C 277.175 355.133, 274.700 356, 272.500 357.041 M 263 360 C 261.012 361.285, 263.510 361.285, 266.500 360 L 268.500 359.141 266.500 359.086 C 265.400 359.055, 263.825 359.467, 263 360 M 206.244 362.250 C 206.470 362.938, 207.970 363.619, 209.577 363.765 L 212.500 364.030 210 362.551 C 206.904 360.718, 205.709 360.622, 206.244 362.250 M 360.446 363.087 C 360.077 363.685, 360.302 364.698, 360.946 365.337 C 361.840 366.224, 361.966 366.026, 361.478 364.500 C 360.878 362.629, 360.929 362.612, 362.279 364.250 C 364.234 366.623, 365.320 366.466, 364 364 C 362.812 361.780, 361.467 361.435, 360.446 363.087 M 369.694 363.639 C 368.895 364.438, 369.798 366, 371.059 366 C 371.577 366, 372 365.325, 372 364.500 C 372 362.954, 370.820 362.513, 369.694 363.639 M 247 364.802 C 247 365.426, 246.383 365.700, 245.629 365.411 C 244.875 365.122, 243.964 365.650, 243.606 366.586 C 242.574 369.274, 243.858 369.587, 246.222 367.222 C 247.414 366.031, 248.076 364.743, 247.694 364.361 C 247.313 363.979, 247 364.178, 247 364.802 M 223.030 372.300 C 223.014 372.739, 223.657 374.370, 224.460 375.923 C 225.263 377.476, 225.638 379.028, 225.293 379.373 C 224.949 379.718, 225.979 379.998, 227.583 379.995 L 230.500 379.990 227.857 377.745 C 226.403 376.510, 224.729 374.600, 224.137 373.500 C 223.545 372.400, 223.047 371.860, 223.030 372.300 M 296 375.490 C 296 376.175, 302.123 379.210, 302.580 378.753 C 302.797 378.536, 301.406 377.610, 299.487 376.695 C 297.569 375.781, 296 375.239, 296 375.490 M 331.333 376.487 C 331.333 378.309, 336.902 385.003, 336.959 383.250 C 336.982 382.563, 336.523 382, 335.941 382 C 335.359 382, 335.203 381.480, 335.595 380.845 C 336.014 380.168, 335.872 379.961, 335.252 380.344 C 334.656 380.713, 333.739 379.689, 333.149 377.999 C 332.009 374.726, 331.333 374.164, 331.333 376.487 M 322.496 378.838 C 322.213 379.120, 322.937 380.369, 324.105 381.612 C 326.072 383.706, 326.088 383.836, 324.325 383.375 C 323.181 383.076, 321.677 383.700, 320.556 384.938 C 319.530 386.072, 319.183 387, 319.786 387 C 320.389 387, 321.160 386.550, 321.500 386 C 322.501 384.381, 324.473 384.832, 328.584 387.621 C 330.708 389.063, 331.890 389.573, 331.211 388.754 C 330.222 387.562, 330.257 387.032, 331.384 386.096 C 332.825 384.900, 332.517 381.531, 330.761 379.284 C 329.849 378.116, 323.557 377.776, 322.496 378.838 M 325 389 C 326.925 390.054, 328.950 390.916, 329.500 390.916 C 330.050 390.916, 328.925 390.054, 327 389 C 325.075 387.946, 323.050 387.084, 322.500 387.084 C 321.950 387.084, 323.075 387.946, 325 389 M 284 393.351 C 284 394.886, 286.382 400, 287.098 400 C 288.338 400, 288.240 399.365, 286.474 395.950 C 285.158 393.405, 284 392.188, 284 393.351 M 207 406.960 C 207 407.488, 208.903 409.625, 211.228 411.710 C 213.554 413.794, 216.902 416.890, 218.668 418.590 C 225.431 425.097, 237.793 436, 238.408 436 C 241.126 436, 231.412 424.686, 225.726 421.228 C 224.200 420.300, 223.067 418.856, 223.207 418.020 C 223.505 416.243, 219.131 406.536, 218.373 407.293 C 218.091 407.575, 218.823 409.693, 220 412 C 223.031 417.940, 219.269 417.109, 216.070 411.131 C 215.397 409.874, 214.248 409.074, 213.517 409.355 C 212.786 409.636, 211.401 408.995, 210.439 407.933 C 208.556 405.852, 207 405.412, 207 406.960 M 317 411.364 C 317 411.639, 318.350 412.825, 320 414 C 321.650 415.175, 323 415.911, 323 415.636 C 323 415.361, 321.650 414.175, 320 413 C 318.350 411.825, 317 411.089, 317 411.364 M 298.459 416.171 C 298.778 417.750, 298.316 420.030, 297.329 421.750 C 295.790 424.430, 297.718 429, 300.387 429 C 301.774 429, 301.401 421.989, 299.808 418.105 C 298.769 415.572, 298.162 414.702, 298.459 416.171 M 293.345 416.543 C 293.019 417.392, 293.034 418.367, 293.376 418.710 C 293.719 419.053, 294 418.782, 294 418.108 C 294 417.434, 294.445 417.157, 294.989 417.493 C 295.555 417.843, 295.723 417.442, 295.382 416.552 C 294.630 414.593, 294.094 414.590, 293.345 416.543 M 314 426.139 C 314 428.856, 309.234 430.306, 307.984 427.970 C 307.404 426.886, 306.440 426, 305.842 426 C 305.133 426, 305.192 426.526, 306.010 427.512 C 307.423 429.215, 303.389 433.963, 301.161 433.220 C 299.606 432.702, 299.675 436.273, 301.250 437.859 C 302.253 438.869, 302.131 438.978, 300.635 438.408 C 299.033 437.798, 298.874 438.037, 299.509 440.099 C 299.916 441.419, 299.908 442.178, 299.491 441.784 C 298.579 440.921, 295 445.243, 295 447.208 C 295 447.973, 294.535 449.065, 293.967 449.633 C 292.625 450.975, 293.792 454.017, 295.410 453.396 C 296.095 453.133, 297.913 453.397, 299.450 453.981 C 302.067 454.976, 302.206 454.899, 301.636 452.772 C 301.301 451.522, 301.021 449.938, 301.014 449.250 C 301.006 448.563, 300.564 448, 300.031 448 C 299.499 448, 299.322 448.675, 299.638 449.500 C 300.203 450.972, 298.914 451.581, 297.734 450.400 C 296.789 449.455, 299.068 444.907, 302.945 440 C 306.219 435.856, 308.187 433.938, 314.276 428.960 C 316.060 427.502, 316.253 426.890, 315.250 425.871 C 314.241 424.845, 314 424.897, 314 426.139 M 350.872 429.968 C 350.539 433.967, 350.082 435.796, 348.491 439.500 L 346.773 443.500 348.995 441.500 C 355.160 435.949, 357.952 427.861, 353.578 428.223 C 352.091 428.346, 350.946 429.084, 350.872 429.968 M 322.835 435.330 C 321.414 436.410, 321.332 437.202, 322.274 440.731 C 323.530 445.437, 327 447.494, 327 443.531 C 327 442.277, 327.234 439.731, 327.519 437.875 C 327.923 435.251, 327.827 434.945, 327.089 436.500 C 326.216 438.342, 325.482 437.279, 325.882 434.750 C 326.057 433.640, 324.723 433.894, 322.835 435.330 M 309.190 447.945 C 309.360 450.914, 310.004 453.509, 310.621 453.712 C 311.434 453.979, 311.478 452.629, 310.783 448.790 C 309.498 441.703, 308.810 441.338, 309.190 447.945"
          stroke="none" fill="#efd7f6" fill-rule="evenodd"/>
    <path d="M 146.921 32.711 C 146.875 33.759, 146.633 33.982, 146.338 33.250 C 145.590 31.398, 144.002 31.735, 143.985 33.750 C 143.972 35.238, 143.828 35.276, 143.024 34.005 C 142.212 32.721, 141.851 32.791, 140.465 34.505 C 139.578 35.602, 139.137 35.938, 139.485 35.250 C 139.833 34.563, 139.641 34, 139.059 34 C 138.477 34, 137.993 34.788, 137.985 35.750 C 137.972 37.238, 137.828 37.276, 137.024 36.005 C 136.212 34.721, 135.851 34.791, 134.465 36.505 C 133.578 37.602, 133.137 37.938, 133.485 37.250 C 133.833 36.563, 133.641 36, 133.059 36 C 132.477 36, 131.993 36.788, 131.985 37.750 C 131.972 39.248, 131.828 39.284, 130.985 38 C 130.266 36.905, 129.795 36.816, 129.241 37.670 C 128.823 38.313, 127.810 38.988, 126.991 39.170 C 125.170 39.573, 122.398 43.124, 122.829 44.500 C 123.002 45.050, 122.586 44.953, 121.906 44.285 C 120.934 43.329, 120.368 43.436, 119.261 44.785 C 118.486 45.728, 118.137 45.938, 118.485 45.250 C 118.863 44.504, 118.465 44, 117.500 44 C 116.610 44, 116.121 44.387, 116.413 44.859 C 116.705 45.332, 115.323 45.540, 113.342 45.321 C 110.871 45.049, 109.101 45.485, 107.699 46.712 C 106.575 47.695, 105.985 47.938, 106.387 47.250 C 107.545 45.270, 103.613 45.733, 101.153 47.867 C 99.821 49.023, 99.082 50.719, 99.214 52.320 C 99.332 53.742, 99.640 54.693, 99.898 54.435 C 100.157 54.176, 101.835 55.386, 103.626 57.123 C 105.418 58.859, 110.623 62.852, 115.192 65.995 C 119.761 69.138, 124.563 73.238, 125.863 75.105 C 127.532 77.503, 128.026 77.839, 127.546 76.250 C 127.171 75.013, 127.233 74.007, 127.683 74.015 C 128.885 74.038, 131.184 75.623, 131.085 76.362 C 130.818 78.358, 131.113 79.048, 132 78.500 C 132.949 77.914, 133.168 78.344, 133.400 81.250 C 133.455 81.938, 134.400 83.094, 135.500 83.819 C 136.963 84.784, 137.042 84.998, 135.793 84.617 C 134.319 84.167, 134.237 84.425, 135.190 86.517 C 135.796 87.848, 136.753 88.653, 137.316 88.305 C 137.935 87.922, 138.090 88.322, 137.709 89.315 C 136.980 91.215, 140.320 99.346, 141.391 98.276 C 141.784 97.883, 141.846 98.239, 141.527 99.068 C 140.583 101.529, 154.222 131.342, 180.382 184 C 205.577 234.717, 205.708 235, 204 235 C 203.450 235, 203.112 234.497, 203.250 233.883 C 203.387 233.268, 202.702 232.632, 201.726 232.468 C 200.381 232.242, 201.901 235.840, 208.007 247.335 C 226.110 281.416, 234.301 298.428, 231.831 296.809 C 229.447 295.247, 227 296.293, 227 298.874 C 227 299.402, 226.437 300.060, 225.750 300.338 C 224.844 300.703, 224.886 300.864, 225.903 300.921 C 226.874 300.976, 226.648 301.571, 225.171 302.852 C 223.997 303.870, 223.141 304.888, 223.268 305.113 C 223.396 305.339, 222.938 304.870, 222.250 304.071 C 219.940 301.385, 220.905 304.797, 225.500 315.554 C 227.975 321.348, 230 326.479, 230 326.956 C 230 327.433, 231.586 331.527, 233.523 336.055 C 235.461 340.582, 236.852 344.481, 236.615 344.719 C 236.377 344.956, 235.886 344.217, 235.524 343.075 C 235.162 341.934, 234.446 341, 233.933 341 C 233.420 341, 233.071 340.663, 233.159 340.250 C 233.246 339.837, 232.966 338.694, 232.536 337.709 C 231.660 335.701, 229.016 339.539, 228.985 342.864 C 228.971 344.286, 228.842 344.303, 228 343 C 225.921 339.784, 227.279 343.444, 234.543 360.634 C 242.698 379.936, 244 382.216, 244 377.200 C 244 375.440, 244.380 374, 244.845 374 C 246.046 374, 249 377.433, 249 378.829 C 249 379.473, 249.563 380.030, 250.250 380.068 C 250.938 380.105, 250.530 380.604, 249.346 381.178 C 245.913 382.839, 246.066 386.158, 250.008 395.636 C 257.155 412.816, 258.925 416.243, 260.366 415.690 C 261.124 415.399, 263.847 414.846, 266.418 414.460 C 270.299 413.878, 274.518 411.324, 291.296 399.402 C 315.218 382.404, 310.464 383.122, 330.719 393.449 L 347.289 401.897 351.569 398.953 C 353.923 397.333, 356.895 394.719, 358.174 393.144 C 359.453 391.569, 363.313 387.055, 366.750 383.114 C 372.514 376.506, 373 375.583, 373 371.248 C 373 368.663, 375.014 358.645, 377.476 348.987 C 386.552 313.380, 386.702 310.988, 380.417 302.176 C 380.290 301.998, 378.682 302.571, 376.843 303.449 C 373.720 304.940, 373.648 304.937, 375.750 303.401 C 379.059 300.982, 378.667 299.799, 371.208 289.698 C 367.473 284.639, 362.696 278.120, 360.594 275.210 C 356.877 270.067, 356.706 269.963, 354.421 271.460 C 351.389 273.447, 350.426 273.431, 352.429 271.429 C 354.415 269.442, 354.418 268.374, 352.436 267.614 C 351.576 267.284, 351.009 266.203, 351.177 265.213 C 351.605 262.687, 343.308 249.691, 341.845 250.596 C 341.134 251.035, 340.962 250.870, 341.398 250.165 C 342.154 248.942, 339.296 244.754, 307.166 200 C 287.061 171.995, 270.026 149, 269.387 149 C 269.208 149, 270.346 151.475, 271.916 154.500 C 273.485 157.525, 274.633 160, 274.467 160 C 274.301 160, 269.382 153.700, 263.535 146 C 257.689 138.300, 252.675 132, 252.394 132 C 252.112 132, 252.080 132.338, 252.322 132.750 C 252.564 133.162, 254.620 136.650, 256.890 140.500 C 262.429 149.893, 259.713 146.300, 242.906 122 C 235.108 110.725, 228.719 100.825, 228.709 100 C 228.698 99.175, 226.447 95.165, 223.705 91.088 C 219.660 85.073, 218.925 83.350, 219.804 81.942 C 221.199 79.709, 220.847 79.410, 204 68.535 L 190.500 59.820 195.507 65.160 C 207.742 78.209, 208.618 79.662, 197.972 69.250 C 191.645 63.063, 185.721 58, 184.807 58 C 183.893 58, 182.325 56.968, 181.323 55.707 C 180.320 54.445, 177.250 51.879, 174.500 50.004 C 171.750 48.129, 168.935 46.041, 168.244 45.363 C 167.553 44.685, 166.091 43.846, 164.994 43.498 C 163.897 43.150, 163 42.528, 163 42.117 C 163 41.705, 161.088 40.319, 158.750 39.036 C 156.412 37.753, 153.741 36.051, 152.813 35.253 C 151.885 34.456, 150.578 34.143, 149.909 34.557 C 149.239 34.970, 148.938 34.902, 149.241 34.405 C 149.543 33.907, 149.162 32.920, 148.395 32.211 C 147.242 31.144, 146.986 31.231, 146.921 32.711 M 153.548 111.161 C 161.569 126.747, 175.621 154.800, 184.776 173.500 C 205.814 216.478, 232.907 270.190, 234.207 271.500 C 234.753 272.050, 231.803 265.688, 227.650 257.362 C 219.984 241.993, 218.633 235.044, 223.297 234.985 C 224.133 234.974, 224.093 234.711, 223.165 234.123 C 221.376 232.989, 221.476 231.873, 223.466 230.759 C 224.842 229.989, 224.897 229.575, 223.805 228.232 C 222.695 226.865, 222.745 226.717, 224.143 227.240 C 225.509 227.752, 225.750 227.203, 225.574 223.981 C 225.458 221.850, 225.738 220.338, 226.198 220.622 C 226.657 220.906, 226.820 221.482, 226.560 221.902 C 226.301 222.323, 226.719 222.667, 227.490 222.667 C 229.231 222.667, 229.151 222.512, 218.680 205.609 C 211.685 194.317, 208.353 186.864, 211.044 188.527 C 211.522 188.822, 211.665 189.837, 211.362 190.782 C 210.939 192.101, 211.037 192.185, 211.781 191.142 C 212.315 190.396, 212.538 188.200, 212.277 186.263 C 211.969 183.983, 212.278 182.400, 213.151 181.776 C 214.143 181.067, 213.999 180.975, 212.609 181.429 C 211.166 181.899, 210.962 181.744, 211.749 180.773 C 212.655 179.654, 171.203 107.760, 166.135 101.661 C 164.956 100.242, 141.935 84.098, 139.754 83.161 C 139.320 82.974, 145.527 95.574, 153.548 111.161 M 213.667 87.826 L 210.900 90.714 222.416 109.861 C 228.750 120.392, 238.566 135.194, 244.230 142.754 C 249.894 150.314, 255.835 158.577, 257.434 161.116 C 263.035 170.011, 263.862 168.082, 258.693 158.179 C 255.695 152.434, 254.391 149.110, 255.484 150 C 257.213 151.407, 257.253 151.360, 256.126 149.245 C 253.338 144.014, 237.935 119.353, 228.282 104.668 C 222.558 95.961, 217.551 87.959, 217.154 86.887 C 216.477 85.058, 216.263 85.116, 213.667 87.826 M 223.090 94.013 C 225.410 97.320, 227.488 99.846, 227.708 99.626 C 228.128 99.205, 220.017 88, 219.292 88 C 219.061 88, 220.770 90.706, 223.090 94.013 M 198.500 106 C 199.353 107.650, 200.281 109, 200.561 109 C 200.841 109, 200.589 108.100, 200 107 C 199.274 105.644, 199.263 105, 199.965 105 C 200.534 105, 201 104.550, 201 104 C 201 103.450, 200.088 103, 198.974 103 C 197.045 103, 197.023 103.143, 198.500 106 M 222.608 117 C 227.378 124.975, 231.734 131.950, 232.287 132.500 C 233.643 133.848, 233.463 133.515, 225.241 119.484 C 221.368 112.875, 217.240 106.350, 216.067 104.984 C 214.894 103.618, 217.838 109.025, 222.608 117 M 223.872 133.500 C 224.412 134.600, 225.586 136.400, 226.482 137.500 L 228.110 139.500 227.128 137.500 C 226.588 136.400, 225.414 134.600, 224.518 133.500 L 222.890 131.500 223.872 133.500 M 228.872 141.500 C 229.412 142.600, 230.586 144.400, 231.482 145.500 L 233.110 147.500 232.128 145.500 C 231.588 144.400, 230.414 142.600, 229.518 141.500 L 227.890 139.500 228.872 141.500 M 188.090 189.500 C 188.090 190.050, 189.175 192.525, 190.500 195 C 191.825 197.475, 192.910 199.050, 192.910 198.500 C 192.910 197.950, 191.825 195.475, 190.500 193 C 189.175 190.525, 188.090 188.950, 188.090 189.500 M 325 196.735 C 325 197.264, 326.803 198.509, 329.006 199.503 C 333.073 201.337, 340.026 208.736, 339.968 211.168 C 339.945 212.151, 339.617 212.087, 338.718 210.925 C 338.048 210.059, 336.150 208.489, 334.500 207.438 C 331.553 205.560, 331.563 205.596, 335.099 209.513 C 347.371 223.108, 346.681 222.509, 348.419 221.067 C 351.244 218.722, 348.105 205.408, 344.269 203.464 C 343.144 202.894, 340.486 201.239, 338.362 199.787 C 334.429 197.099, 325 194.944, 325 196.735 M 194.287 204.750 C 194.509 205.162, 198.592 213.488, 203.360 223.250 C 211.899 240.736, 216.143 247.889, 209.589 233.750 C 198.749 210.364, 195.581 204, 194.778 204 C 194.285 204, 194.064 204.338, 194.287 204.750 M 360.660 220.396 C 357.764 224.817, 357.481 228.100, 359.844 229.888 C 361.608 231.222, 362.365 233.954, 364.237 245.749 C 365.482 253.586, 366.868 259.999, 367.317 259.999 C 367.767 260, 367.863 259.143, 367.530 258.096 C 367.023 256.498, 364.080 236.091, 364.020 233.750 C 363.988 232.523, 365.360 232.950, 367.683 234.889 C 369.382 236.308, 370.116 238.570, 370.996 245.106 C 372.834 258.747, 373.151 260.487, 373.842 260.750 C 374.734 261.089, 374.532 271.330, 373.604 272.832 C 373.196 273.492, 372.520 273.821, 372.101 273.563 C 371.683 273.304, 371.452 274.084, 371.587 275.296 C 371.723 276.508, 371.878 278.175, 371.932 279 C 372.014 280.243, 372.180 280.264, 372.904 279.122 C 373.384 278.364, 374.187 277.997, 374.688 278.307 C 375.189 278.617, 376.173 277.953, 376.874 276.831 C 377.577 275.705, 377.667 275.088, 377.074 275.454 C 376.483 275.819, 376 275.668, 376 275.118 C 376 272.142, 378.078 273.528, 379.150 277.220 L 380.394 281.500 380.980 276.193 C 381.303 273.274, 382.034 270.574, 382.606 270.193 C 384.489 268.938, 384.886 266.226, 383.463 264.347 C 382.693 263.331, 382.049 261.745, 382.032 260.821 C 382.014 259.898, 381.293 258.436, 380.429 257.571 C 379.564 256.707, 379.287 256, 379.812 256 C 381.124 256, 381.820 251.787, 380.897 249.431 C 380.312 247.938, 380.104 248.294, 379.980 251 L 379.820 254.500 378.827 251.042 C 378.282 249.140, 377.985 245.427, 378.168 242.791 C 378.350 240.155, 378.163 237.999, 377.750 237.999 C 376.300 238.001, 377.018 234.207, 378.582 233.607 C 380.813 232.751, 380.819 232.755, 381.245 235.250 C 381.456 236.488, 381.686 235.176, 381.757 232.336 C 381.879 227.399, 381.735 227.102, 378.485 225.560 C 376.615 224.672, 374.810 223.502, 374.475 222.959 C 371.859 218.727, 362.849 217.055, 360.660 220.396 M 379 243 C 379 244.650, 379.372 246, 379.827 246 C 380.282 246, 380.455 244.650, 380.213 243 C 379.971 241.350, 379.599 240, 379.387 240 C 379.174 240, 379 241.350, 379 243 M 213.052 242.583 C 213.121 243.796, 226.880 270.714, 226.948 269.768 C 227 269.034, 214.232 242.898, 213.428 242.095 C 213.193 241.859, 213.024 242.079, 213.052 242.583 M 372.015 244.750 C 372.007 246.537, 372.173 248, 372.383 248 C 373.293 248, 373.679 244.102, 372.893 242.861 C 372.307 241.936, 372.026 242.540, 372.015 244.750 M 299.606 250 C 301.153 253.092, 308.198 264, 308.647 264 C 309.428 264, 303.660 254.133, 301.178 251.223 C 299.900 249.725, 299.193 249.175, 299.606 250 M 259.559 256.250 C 259.941 257.488, 260.890 259.751, 261.668 261.279 C 262.445 262.808, 262.769 264.565, 262.386 265.184 C 261.987 265.830, 262.138 266.033, 262.741 265.660 C 263.318 265.303, 264.021 265.612, 264.303 266.346 C 264.840 267.746, 263.733 270.232, 262.638 270.085 C 260.381 269.783, 260.049 270.191, 261.429 271.571 C 263.361 273.504, 263.370 273.667, 261.544 273.667 C 260.743 273.667, 260.363 273.222, 260.698 272.679 C 261.065 272.085, 260.788 272.013, 260.003 272.498 C 258.983 273.128, 259.101 273.601, 260.540 274.653 C 261.553 275.394, 261.857 276, 261.216 276 C 260.402 276, 260.322 276.716, 260.952 278.373 C 261.548 279.941, 261.471 281.129, 260.727 281.873 C 259.891 282.709, 259.902 283, 260.769 283 C 261.448 283, 261.670 283.697, 261.299 284.664 C 260.901 285.700, 261.059 286.082, 261.716 285.676 C 263.183 284.769, 263.918 289.390, 262.666 291.655 C 261.778 293.261, 261.851 293.332, 263.234 292.201 C 264.458 291.201, 264.992 291.179, 265.565 292.106 C 266.037 292.869, 265.886 293.048, 265.155 292.595 C 264.115 291.953, 263.810 292.575, 264.100 294.750 C 264.155 295.163, 264.717 295.350, 265.350 295.167 C 265.982 294.983, 266.166 295.167, 265.759 295.575 C 265.351 295.982, 265.514 296.915, 266.121 297.646 C 266.953 298.648, 266.834 299.127, 265.638 299.585 C 264.277 300.108, 264.250 300.393, 265.454 301.597 C 267.246 303.389, 268.087 303.391, 267.400 301.601 C 267.105 300.832, 267.232 299.975, 267.682 299.697 C 268.132 299.419, 268.565 300.274, 268.644 301.596 C 268.724 302.918, 268.386 304, 267.894 304 C 267.402 304, 267.007 304.788, 267.015 305.750 C 267.028 307.246, 267.172 307.282, 268 306 C 268.862 304.667, 268.973 304.667, 269 306 C 269.026 307.295, 269.156 307.302, 269.946 306.054 C 270.513 305.157, 270.463 303.865, 269.814 302.652 C 268.931 301.003, 269.038 300.801, 270.495 301.360 C 271.843 301.877, 272.075 301.636, 271.552 300.261 C 271.027 298.882, 271.145 298.762, 272.098 299.708 C 273.054 300.656, 273.041 301.246, 272.035 302.458 C 270.865 303.868, 271.283 304.432, 273.262 304.114 C 274.983 303.838, 277.902 310.315, 276.900 312.188 C 276.061 313.754, 276.369 314.124, 278.934 314.637 C 280.595 314.969, 282.466 315.857, 283.091 316.610 C 284.291 318.056, 286 317.600, 286 315.834 C 286 315.258, 285.400 315.016, 284.667 315.298 C 283.933 315.579, 283.333 315.197, 283.333 314.449 C 283.333 313.700, 283.821 313.380, 284.417 313.736 C 285.012 314.092, 284.941 313.694, 284.259 312.850 C 283.576 312.006, 283.351 310.948, 283.759 310.498 C 284.166 310.048, 283.861 310.050, 283.080 310.504 C 282.022 311.118, 281.823 310.904, 282.299 309.664 C 282.653 308.742, 282.453 308, 281.852 308 C 281.255 308, 281.002 307.099, 281.290 305.999 C 281.631 304.694, 281.411 304.198, 280.657 304.573 C 280.021 304.889, 280.254 304.527, 281.176 303.768 C 282.725 302.493, 282.687 302.286, 280.676 301.033 C 278.692 299.798, 278.621 299.825, 279.872 301.339 C 280.627 302.253, 280.788 303, 280.229 303 C 278.705 303, 277.825 299.916, 278.959 298.549 C 279.628 297.743, 279.552 296.895, 278.726 295.953 C 278.052 295.183, 278.502 295.389, 279.726 296.410 C 280.951 297.432, 281.729 298.629, 281.455 299.072 C 281.182 299.515, 281.552 300.242, 282.279 300.689 C 284.283 301.919, 288.028 307.639, 287.304 308.363 C 286.953 308.713, 287.192 309, 287.833 309 C 288.475 309, 289 309.589, 289 310.309 C 289 311.029, 289.676 312.491, 290.502 313.559 C 291.983 315.472, 291.997 315.471, 291.487 313.500 C 291.203 312.400, 291.631 312.850, 292.440 314.500 C 293.248 316.150, 293.930 317.076, 293.955 316.559 C 294.004 315.527, 299.631 324.461, 304.168 332.773 C 306.407 336.878, 306.819 338.469, 306.026 339.951 C 305.466 340.998, 305.281 342.568, 305.615 343.440 C 306.416 345.525, 304.095 348.250, 302.153 347.505 C 299.998 346.678, 291.854 351.167, 292.491 352.832 C 292.771 353.564, 293 354.603, 293 355.141 C 293 355.678, 293.430 355.852, 293.956 355.527 C 294.482 355.202, 294.682 354.335, 294.400 353.599 C 294.094 352.802, 294.800 352.024, 296.150 351.671 C 299.146 350.888, 299.678 351.593, 297.722 353.754 C 295.396 356.325, 291.342 362.043, 289.396 365.500 L 287.706 368.500 290.853 365.144 C 292.584 363.299, 294 361.390, 294 360.903 C 294 360.416, 294.900 359.455, 296 358.768 C 297.100 358.081, 298 356.966, 298 356.291 C 298 355.613, 298.668 355.319, 299.492 355.635 C 300.394 355.982, 301.242 355.476, 301.640 354.354 C 302.002 353.334, 303.425 351.488, 304.804 350.250 C 306.334 348.877, 306.772 348, 305.928 348 C 305.052 348, 305.469 347.077, 307.066 345.480 C 309.376 343.170, 309.871 343.059, 313.008 344.152 L 316.429 345.345 312.965 346.541 C 311.059 347.199, 309.163 347.544, 308.750 347.309 C 308.337 347.074, 308 347.560, 308 348.389 C 308 349.633, 308.530 349.711, 311.031 348.839 C 312.698 348.258, 314.926 348.009, 315.983 348.285 C 317.040 348.562, 318.060 348.321, 318.250 347.750 C 318.486 347.041, 319.230 347.052, 320.602 347.787 C 323.066 349.105, 325.517 347.790, 324.677 345.601 C 324.229 344.434, 324.664 343.992, 326.281 343.970 C 328.313 343.942, 328.348 343.851, 326.695 342.889 C 324.271 341.479, 326.232 339.030, 329.872 338.921 C 331.318 338.878, 331.903 338.604, 331.173 338.312 C 330.393 338.001, 333.389 335.491, 338.431 332.232 C 343.153 329.180, 346.825 326.492, 346.591 326.258 C 345.338 325.005, 326.511 336.144, 326.478 338.159 C 326.465 338.896, 325.678 339.368, 324.728 339.206 C 323.628 339.019, 322.994 339.564, 322.985 340.706 C 322.973 342.115, 322.782 342.204, 322.096 341.122 C 321.616 340.364, 320.779 340.019, 320.235 340.355 C 319.605 340.744, 319.398 338.519, 319.664 334.233 C 319.894 330.530, 320.036 326.600, 319.981 325.500 C 319.492 315.828, 321.932 303.974, 326.091 295.822 C 327.222 293.605, 327.645 292.101, 327.032 292.480 C 326.418 292.860, 324.508 296.319, 322.787 300.167 C 319.888 306.652, 319.573 307.006, 318.495 304.990 C 317.425 302.991, 317.319 303.123, 317.187 306.637 C 317.088 309.282, 316.344 311.031, 314.772 312.316 C 313.522 313.338, 313.139 313.836, 313.920 313.423 C 314.937 312.885, 315.171 313.112, 314.745 314.223 C 314.312 315.351, 314.642 315.645, 315.954 315.302 C 317.600 314.871, 317.762 315.679, 317.792 324.472 L 317.825 334.115 314.710 329.308 C 303.082 311.358, 301.547 308.275, 303.187 306.178 C 304.335 304.710, 304.301 304.655, 302.912 305.738 C 301.338 306.965, 293.012 295.095, 293.775 292.710 C 293.926 292.238, 293.512 292.184, 292.855 292.590 C 292.033 293.098, 291.866 292.793, 292.319 291.612 C 292.681 290.668, 292.579 290.142, 292.093 290.442 C 291.290 290.939, 289.971 288.880, 290.113 287.351 C 290.145 287.006, 289.756 286.448, 289.249 286.112 C 288.742 285.775, 287.041 283.250, 285.469 280.500 C 281.805 274.091, 278.147 268.988, 275.551 266.663 C 274.423 265.653, 274.132 265.160, 274.905 265.568 C 275.862 266.073, 276.069 265.920, 275.554 265.088 C 275.139 264.416, 274.564 264.103, 274.276 264.391 C 273.988 264.679, 272.926 263.922, 271.917 262.707 C 270.339 260.809, 270.380 261.159, 272.211 265.204 C 273.382 267.791, 274.617 269.736, 274.956 269.527 C 275.294 269.318, 275.571 270.020, 275.571 271.087 C 275.571 272.701, 275.175 272.520, 273.206 270.004 C 271.905 268.341, 270.357 267.280, 269.766 267.645 C 269.167 268.015, 268.978 267.844, 269.340 267.259 C 269.697 266.682, 269.361 265.969, 268.594 265.674 C 267.827 265.380, 265.536 262.633, 263.502 259.570 C 259.529 253.583, 258.459 252.682, 259.559 256.250 M 369.436 258 C 369.826 259.375, 370.187 261.063, 370.239 261.750 C 370.291 262.438, 370.717 263, 371.186 263 C 372.249 263, 371.101 257.856, 369.735 256.500 C 369.060 255.829, 368.961 256.324, 369.436 258 M 258.515 265.976 C 258.150 266.567, 258.222 266.985, 258.676 266.906 C 260.697 266.555, 261.373 267.113, 260 268 C 258.718 268.828, 258.754 268.972, 260.250 268.985 C 262.362 269.003, 262.516 267.674, 260.589 266.074 C 259.599 265.253, 258.980 265.223, 258.515 265.976 M 328.667 286.667 C 327.742 287.591, 327.829 290, 328.787 290 C 329.220 290, 329.642 289.100, 329.725 288 C 329.887 285.851, 329.708 285.625, 328.667 286.667 M 390.252 289.662 C 391.216 290.762, 391.723 291.944, 391.379 292.288 C 391.034 292.632, 391.058 293.708, 391.430 294.679 C 392 296.164, 392.250 296.214, 393.002 294.996 C 393.742 293.799, 394.036 293.890, 394.699 295.524 C 395.794 298.224, 397.715 298.401, 399.041 295.923 C 400.541 293.121, 397.872 289, 394.559 289 C 393.241 289, 391.339 288.699, 390.332 288.330 C 388.581 287.690, 388.577 287.749, 390.252 289.662 M 400.865 301.750 C 400.791 302.163, 400.679 303.808, 400.615 305.407 C 400.552 307.006, 399.875 308.527, 399.111 308.787 C 398.149 309.114, 397.977 308.835, 398.553 307.880 C 399.258 306.709, 399.128 306.708, 397.692 307.872 C 396.761 308.627, 396 309.838, 396 310.563 C 396 313.112, 398.121 313.151, 400.624 310.649 C 402.014 309.259, 403.735 308.345, 404.448 308.618 C 406.282 309.322, 407.143 304, 405.466 302.324 C 404.038 300.895, 401.085 300.527, 400.865 301.750 M 273 306.059 C 273 306.641, 272.438 306.827, 271.750 306.472 C 271.063 306.117, 271.625 306.807, 273 308.006 C 274.932 309.691, 275.070 310.046, 273.609 309.570 C 271.956 309.032, 271.888 309.160, 273.072 310.587 C 273.922 311.611, 274.565 311.804, 274.799 311.103 C 275.003 310.490, 275.620 310.265, 276.168 310.604 C 276.716 310.943, 276.441 309.821, 275.557 308.110 C 273.906 304.918, 273 304.191, 273 306.059 M 296.416 306.641 C 296.927 307.974, 296.776 308.059, 295.612 307.093 C 294.738 306.368, 293.947 306.277, 293.586 306.861 C 292.702 308.291, 294.048 311.088, 295.259 310.340 C 295.841 309.980, 296.015 310.166, 295.651 310.756 C 295.289 311.342, 297.019 315.250, 299.496 319.440 C 301.973 323.629, 304 327.358, 304 327.724 C 304 329.229, 309.326 333.812, 310.535 333.348 C 311.336 333.041, 311.968 333.748, 312.170 335.174 C 312.502 337.514, 317 339.289, 317 337.080 C 317 335.973, 311.590 327.250, 302.220 313.250 C 296.863 305.245, 295.117 303.258, 296.416 306.641 M 278.651 307.468 C 278.341 308.275, 278.525 309.206, 279.060 309.537 C 279.595 309.868, 279.805 310.506, 279.527 310.956 C 279.249 311.405, 279.805 312.387, 280.761 313.137 C 282.335 314.370, 282.370 314.334, 281.128 312.750 C 280.373 311.788, 280.125 311, 280.578 311 C 281.030 311, 280.895 310.495, 280.278 309.878 C 279.661 309.261, 279.394 308.136, 279.685 307.378 C 279.976 306.620, 279.989 306, 279.714 306 C 279.439 306, 278.960 306.661, 278.651 307.468 M 391.823 317.750 C 391.464 319.021, 391.628 320, 392.201 320 C 392.758 320, 392.931 320.739, 392.584 321.641 C 392.057 323.014, 392.204 323.076, 393.477 322.019 C 395.113 320.662, 395.613 318.503, 394.071 319.456 C 393.561 319.771, 392.989 319.010, 392.801 317.765 L 392.459 315.500 391.823 317.750 M 190.500 321.606 C 188.533 323.124, 188.552 323.194, 191.608 325.825 C 193.318 327.296, 194.970 329.175, 195.279 330 C 195.735 331.215, 195.857 331.230, 195.921 330.079 C 195.964 329.297, 195.348 327.937, 194.551 327.056 C 192.934 325.269, 194.048 322.294, 195.905 323.441 C 196.525 323.824, 196.777 324.552, 196.464 325.058 C 196.152 325.563, 196.619 325.700, 197.502 325.361 C 198.898 324.825, 198.816 324.433, 196.880 322.372 C 194.292 319.618, 193.241 319.492, 190.500 321.606 M 173.673 332.244 C 172.668 333.295, 171.182 333.900, 170.371 333.589 C 169.542 333.271, 169.164 333.456, 169.507 334.011 C 170.650 335.861, 174.832 335.106, 175.524 332.925 C 176.407 330.143, 175.871 329.946, 173.673 332.244 M 178 330.810 C 178 331.390, 178.900 332.151, 180 332.500 C 181.100 332.849, 182 333.581, 182 334.126 C 182 334.672, 182.450 334.840, 183 334.500 C 183.550 334.160, 183.993 333.121, 183.985 332.191 C 183.971 330.734, 183.835 330.707, 183 332 C 182.202 333.235, 182.028 333.250, 182.015 332.083 C 182.007 331.304, 181.704 330.963, 181.342 331.325 C 180.980 331.687, 180.080 331.481, 179.342 330.869 C 178.438 330.118, 178 330.099, 178 330.810 M 308 339.500 C 307.306 340.337, 307.197 341, 307.755 341 C 308.305 341, 309.315 340.325, 310 339.500 C 310.694 338.663, 310.803 338, 310.245 338 C 309.695 338, 308.685 338.675, 308 339.500 M 179.528 345.954 C 178.921 346.936, 184.716 362.391, 190.980 376.500 C 192.445 379.800, 195.595 387.321, 197.980 393.214 C 201.451 401.791, 210.491 415.655, 207.457 407.748 C 206.563 405.419, 208.259 405.524, 210.439 407.933 C 211.401 408.995, 212.786 409.636, 213.517 409.355 C 214.248 409.074, 215.397 409.874, 216.070 411.131 C 219.269 417.109, 223.031 417.940, 220 412 C 218.823 409.693, 218.091 407.575, 218.373 407.293 C 219.131 406.536, 223.505 416.243, 223.207 418.020 C 223.067 418.856, 224.200 420.300, 225.726 421.228 C 232.027 425.060, 239.999 434.667, 238.293 436.373 C 237.096 437.570, 240.349 436.991, 244.089 435.341 C 246.158 434.428, 248.067 432.853, 248.331 431.841 C 248.638 430.669, 249.726 430, 251.325 430 C 257.952 430, 258.342 428.250, 253.628 419.651 C 251.773 416.268, 248.145 409.291, 245.566 404.146 C 242.986 399.001, 240.657 395.010, 240.390 395.277 C 240.123 395.543, 242.851 401.469, 246.452 408.446 C 254.751 424.523, 253.584 426.415, 242.673 414.569 C 240.588 412.305, 240.020 412.025, 240.509 413.500 C 240.874 414.600, 241.343 416.344, 241.553 417.374 C 241.762 418.405, 242.623 420.302, 243.467 421.589 C 244.310 422.876, 245 424.484, 245 425.161 C 245 426.745, 239.846 418.619, 235.928 410.857 C 233.306 405.664, 233.135 404.879, 234.685 405.178 C 235.741 405.381, 236.749 406.759, 237.124 408.512 C 237.476 410.155, 237.817 410.911, 237.882 410.191 C 237.947 409.471, 238.450 409.160, 239 409.500 C 240.499 410.427, 240.295 409.841, 236.615 402.655 L 233.231 396.046 236.546 394.847 L 239.861 393.648 237.833 389.673 C 236.718 387.486, 235.511 386.136, 235.153 386.672 C 233.553 389.059, 231.307 388.845, 231.784 386.351 C 232.089 384.752, 232.747 384.072, 233.651 384.419 C 234.757 384.844, 234.827 384.545, 233.988 382.977 C 233.406 381.890, 232.495 381, 231.965 381 C 231.434 381, 231 380.344, 231 379.542 C 231 373.699, 216.141 364.541, 209.243 366.133 C 201.718 367.870, 197.278 364.062, 203.159 360.915 C 205.381 359.726, 195.178 352.051, 185 347.255 C 183.075 346.348, 181.204 345.445, 180.842 345.250 C 180.480 345.054, 179.888 345.371, 179.528 345.954 M 367.015 354.193 C 366.995 355.099, 371.070 362, 371.624 362 C 371.859 362, 371.381 360.762, 370.562 359.250 C 368.524 355.487, 367.034 353.361, 367.015 354.193 M 272.500 357.041 C 269.039 358.678, 268.904 358.851, 271.500 358.328 C 275.022 357.618, 280.186 355.064, 278 355.114 C 277.175 355.133, 274.700 356, 272.500 357.041 M 263 360 C 261.012 361.285, 263.510 361.285, 266.500 360 L 268.500 359.141 266.500 359.086 C 265.400 359.055, 263.825 359.467, 263 360 M 206.244 362.250 C 206.470 362.938, 207.970 363.619, 209.577 363.765 L 212.500 364.030 210 362.551 C 206.904 360.718, 205.709 360.622, 206.244 362.250 M 360.446 363.087 C 360.077 363.685, 360.302 364.698, 360.946 365.337 C 361.840 366.224, 361.966 366.026, 361.478 364.500 C 360.878 362.629, 360.929 362.612, 362.279 364.250 C 364.234 366.623, 365.320 366.466, 364 364 C 362.812 361.780, 361.467 361.435, 360.446 363.087 M 369.694 363.639 C 368.895 364.438, 369.798 366, 371.059 366 C 371.577 366, 372 365.325, 372 364.500 C 372 362.954, 370.820 362.513, 369.694 363.639 M 247 364.802 C 247 365.426, 246.383 365.700, 245.629 365.411 C 244.875 365.122, 243.964 365.650, 243.606 366.586 C 242.574 369.274, 243.858 369.587, 246.222 367.222 C 247.414 366.031, 248.076 364.743, 247.694 364.361 C 247.313 363.979, 247 364.178, 247 364.802 M 223.030 372.300 C 223.014 372.739, 223.657 374.370, 224.460 375.923 C 225.263 377.476, 225.638 379.028, 225.293 379.373 C 224.949 379.718, 225.979 379.998, 227.583 379.995 L 230.500 379.990 227.857 377.745 C 226.403 376.510, 224.729 374.600, 224.137 373.500 C 223.545 372.400, 223.047 371.860, 223.030 372.300 M 296 375.490 C 296 376.175, 302.123 379.210, 302.580 378.753 C 302.797 378.536, 301.406 377.610, 299.487 376.695 C 297.569 375.781, 296 375.239, 296 375.490 M 331.333 376.487 C 331.333 378.309, 336.902 385.003, 336.959 383.250 C 336.982 382.563, 336.523 382, 335.941 382 C 335.359 382, 335.203 381.480, 335.595 380.845 C 336.014 380.168, 335.872 379.961, 335.252 380.344 C 334.656 380.713, 333.739 379.689, 333.149 377.999 C 332.009 374.726, 331.333 374.164, 331.333 376.487 M 322.496 378.838 C 322.213 379.120, 322.937 380.369, 324.105 381.612 C 326.072 383.706, 326.088 383.836, 324.325 383.375 C 323.181 383.076, 321.677 383.700, 320.556 384.938 C 319.530 386.072, 319.183 387, 319.786 387 C 320.389 387, 321.160 386.550, 321.500 386 C 322.501 384.381, 324.473 384.832, 328.584 387.621 C 330.708 389.063, 331.890 389.573, 331.211 388.754 C 330.222 387.562, 330.257 387.032, 331.384 386.096 C 332.825 384.900, 332.517 381.531, 330.761 379.284 C 329.849 378.116, 323.557 377.776, 322.496 378.838 M 325 389 C 326.925 390.054, 328.950 390.916, 329.500 390.916 C 330.050 390.916, 328.925 390.054, 327 389 C 325.075 387.946, 323.050 387.084, 322.500 387.084 C 321.950 387.084, 323.075 387.946, 325 389 M 284 393.351 C 284 394.886, 286.382 400, 287.098 400 C 288.338 400, 288.240 399.365, 286.474 395.950 C 285.158 393.405, 284 392.188, 284 393.351 M 301.930 410.070 C 300.044 411.759, 297.253 413.392, 295.729 413.700 C 292.418 414.367, 292.418 414.367, 291.527 419.750 C 290.869 423.730, 290.973 424.003, 293.162 424.052 L 295.500 424.105 293.242 425.680 L 290.983 427.255 293.543 429.628 C 296.327 432.208, 295.667 432.820, 292.603 430.500 C 291.559 429.710, 290.354 429.281, 289.925 429.547 C 289.495 429.812, 288.875 429.182, 288.546 428.146 C 287.970 426.329, 284 422.080, 284 423.280 C 284 425.148, 286.138 429.033, 286.905 428.559 C 287.405 428.250, 287.593 428.842, 287.323 429.873 C 286.641 432.480, 292.069 450.144, 293.413 449.696 C 294.011 449.497, 294.667 448.474, 294.871 447.422 C 295.380 444.793, 298.565 440.907, 299.491 441.784 C 299.908 442.178, 299.916 441.419, 299.509 440.099 C 298.874 438.037, 299.033 437.798, 300.635 438.408 C 302.131 438.978, 302.253 438.869, 301.250 437.859 C 299.675 436.273, 299.606 432.702, 301.161 433.220 C 303.389 433.963, 307.423 429.215, 306.010 427.512 C 305.192 426.526, 305.133 426, 305.842 426 C 306.440 426, 307.404 426.886, 307.984 427.970 C 309.234 430.306, 314 428.856, 314 426.139 C 314 424.897, 314.241 424.845, 315.250 425.871 C 316.253 426.890, 316.060 427.502, 314.276 428.960 C 308.187 433.938, 306.219 435.856, 302.945 440 C 299.068 444.907, 296.789 449.455, 297.734 450.400 C 298.914 451.581, 300.203 450.972, 299.638 449.500 C 299.322 448.675, 299.499 448, 300.031 448 C 300.564 448, 301.006 448.563, 301.014 449.250 C 301.021 449.938, 301.297 451.507, 301.627 452.737 C 302.196 454.861, 302.066 454.919, 299.062 453.872 C 297.322 453.265, 295.684 452.982, 295.423 453.244 C 294.774 453.893, 304.846 468.755, 308.250 472.172 C 309.762 473.690, 311 475.453, 311 476.089 C 311 476.725, 313.066 480.141, 315.590 483.679 C 322.488 493.344, 323.250 492.614, 324.657 474.989 C 326.642 450.116, 326.684 445.563, 324.932 445.225 C 322.425 444.743, 320.764 436.905, 322.835 435.330 C 324.723 433.894, 326.057 433.640, 325.882 434.750 C 325.507 437.121, 326.201 438.347, 326.902 436.554 C 328.592 432.235, 327.637 419.806, 325.523 418.614 C 324.436 418.002, 323.086 416.947, 322.523 416.270 C 318.858 411.865, 312.923 408.989, 313.710 412 C 314.007 413.133, 313.741 414, 313.097 414 C 312.438 414, 312.147 412.974, 312.404 411.559 C 312.656 410.164, 312.226 408.602, 311.399 407.916 C 309.706 406.511, 308.684 407.247, 308.480 410.020 C 308.400 411.108, 308.552 411.781, 308.819 411.515 C 310.197 410.137, 311.833 416.181, 310.847 419.008 C 309.184 423.781, 306.136 417.436, 305.919 408.750 C 305.863 406.499, 305.953 406.470, 301.930 410.070 M 340.011 411.330 C 340.017 411.424, 340.667 413.625, 341.455 416.223 C 342.882 420.927, 342.326 430.078, 340.509 431.771 C 340.079 432.172, 339.953 431.252, 340.229 429.726 C 340.506 428.201, 340.342 426.711, 339.866 426.417 C 339.390 426.123, 338.996 427.596, 338.991 429.691 C 338.987 431.786, 338.705 435.808, 338.366 438.630 L 337.750 443.760 342.327 443.649 C 347.527 443.523, 350.178 439.419, 350.848 430.463 C 350.945 429.162, 351.764 428.368, 353.113 428.266 C 356.316 428.025, 356.369 427.616, 354.087 420.814 C 351.075 411.834, 350.805 411.551, 345.044 411.343 C 342.270 411.243, 340.005 411.237, 340.011 411.330 M 298.459 416.171 C 298.778 417.750, 298.316 420.030, 297.329 421.750 C 295.790 424.430, 297.718 429, 300.387 429 C 301.774 429, 301.401 421.989, 299.808 418.105 C 298.769 415.572, 298.162 414.702, 298.459 416.171 M 293.345 416.543 C 293.019 417.392, 293.034 418.367, 293.376 418.710 C 293.719 419.053, 294 418.782, 294 418.108 C 294 417.434, 294.445 417.157, 294.989 417.493 C 295.555 417.843, 295.723 417.442, 295.382 416.552 C 294.630 414.593, 294.094 414.590, 293.345 416.543 M 309.190 447.945 C 309.360 450.914, 310.004 453.509, 310.621 453.712 C 311.434 453.979, 311.478 452.629, 310.783 448.790 C 309.498 441.703, 308.810 441.338, 309.190 447.945"
          stroke="none" fill="#9a53ce" fill-rule="evenodd"/>
</svg>