<svg xmlns="http://www.w3.org/2000/svg" width="256" height="256" viewBox="0 0 256 256" version="1.1">
    <path d="M 125.510 43.978 C 122.862 49.849, 113.278 58.428, 97.500 69.047 C 89.800 74.229, 79.900 81.882, 75.500 86.054 C 63.942 97.010, 44.364 101.695, 33.798 96.032 L 30.126 94.064 32.041 98.282 C 34.821 104.404, 34.520 112.559, 31.017 126.029 C 24.660 150.479, 33.179 167, 52.143 167 C 59.912 167, 81.474 174.323, 80.578 176.658 C 80.189 177.671, 80.680 177.868, 82.476 177.417 C 84.269 176.967, 85.575 177.484, 87.495 179.404 C 88.923 180.832, 90.682 182, 91.405 182 C 92.127 182, 94.694 183.571, 97.109 185.490 C 102.002 189.380, 103.189 189.682, 105 187.500 C 106.037 186.251, 105.907 186, 104.228 186 C 103.119 186, 100.833 184.713, 99.149 183.139 C 97.465 181.566, 94.717 179.711, 93.043 179.018 C 88.818 177.268, 89.075 175, 93.500 175 C 95.425 175, 97 174.550, 97 174 C 97 172.677, 93.077 172.728, 89.134 174.103 C 86.473 175.031, 85.230 174.858, 81.315 173.018 C 75.967 170.504, 67.755 167.975, 57 165.531 C 38.990 161.437, 34.189 150.131, 41.487 129 C 43.610 122.853, 44.395 118.763, 44.325 114.226 L 44.228 107.952 47.543 108.574 C 50.547 109.138, 58.024 108.079, 62.107 106.512 C 63.399 106.017, 63.821 106.828, 64.284 110.699 C 64.600 113.339, 65.140 116.228, 65.486 117.119 C 66.406 119.493, 62.524 120.171, 57.643 118.489 C 52.669 116.775, 52.775 116.667, 54.508 121.697 C 55.776 125.377, 55.719 126.884, 53.979 135.862 C 51.288 149.742, 53.206 156.469, 61.002 160.501 C 64.879 162.506, 67.037 162.415, 64.117 160.369 C 59.202 156.927, 57.765 148.644, 60.511 139.591 C 61.330 136.891, 62 132.729, 62 130.341 C 62 123.801, 66.707 123.977, 72.750 130.742 L 77 135.500 75 130.667 C 69.317 116.935, 75.113 106.166, 94.699 94.061 C 114.289 81.954, 120.670 77.564, 124.193 73.769 L 127.886 69.791 132.805 74.645 C 135.511 77.315, 141.724 81.934, 146.612 84.908 C 181.818 106.332, 187.785 114.272, 181 130.667 L 179 135.500 183.250 130.742 C 189.293 123.977, 194 123.801, 194 130.341 C 194 132.729, 194.670 136.891, 195.489 139.591 C 198.235 148.644, 196.798 156.927, 191.883 160.369 C 188.963 162.415, 191.121 162.506, 194.998 160.501 C 202.790 156.472, 205.334 147.278, 202.030 135.084 C 200.511 129.477, 200.497 122.809, 201.998 120.004 C 203.575 117.058, 203.093 116.857, 198.357 118.489 C 193.476 120.171, 189.594 119.493, 190.514 117.119 C 190.860 116.228, 191.400 113.339, 191.716 110.699 C 192.179 106.828, 192.601 106.017, 193.893 106.512 C 197.961 108.074, 205.448 109.139, 208.427 108.580 L 211.712 107.963 211.735 114.732 C 211.752 119.419, 212.559 123.767, 214.361 128.871 C 221.502 149.099, 217.595 160.476, 201.973 164.944 C 197.863 166.120, 190.803 168.250, 186.285 169.677 C 179.114 171.943, 177.685 172.112, 175.030 171.012 L 171.990 169.753 174.070 166.387 C 175.214 164.535, 175.980 162.228, 175.772 161.260 C 175.500 159.996, 174.768 160.697, 173.176 163.750 C 170.713 168.472, 170.104 168.654, 163.974 166.491 C 161.622 165.661, 158.978 165.098, 158.099 165.241 C 156.866 165.441, 156.569 164.775, 156.803 162.330 C 157.068 159.562, 156.846 159.228, 155.053 159.696 C 153.369 160.137, 153 159.764, 153 157.617 C 153 155.983, 152.449 155, 151.532 155 C 150.430 155, 150.272 155.561, 150.897 157.250 C 152.375 161.246, 150.253 163.986, 145.589 164.100 L 141.500 164.201 145.416 165.119 C 148.746 165.900, 149.653 165.735, 151.490 164.010 C 153.807 161.833, 155 162.226, 155 165.167 C 155 166.449, 155.741 167, 157.466 167 C 163.946 167, 169.611 172.307, 164.500 173.589 C 163.125 173.934, 162 174.618, 162 175.108 C 162 175.599, 163.125 176, 164.500 176 C 166.103 176, 167 176.562, 167 177.567 C 167 178.622, 167.589 178.948, 168.802 178.563 C 169.794 178.248, 171.481 178.653, 172.552 179.464 C 173.624 180.274, 175.175 180.948, 176 180.962 C 176.856 180.976, 176.325 180.212, 174.762 179.181 C 172.648 177.787, 172.295 177.105, 173.212 176.188 C 174.864 174.536, 178.509 174.704, 180 176.500 C 180.685 177.325, 182.012 178, 182.950 178 C 183.888 178, 187.424 179.125, 190.808 180.500 C 197.285 183.132, 201.469 183.669, 202.500 182 C 202.843 181.445, 202.105 181, 200.842 181 C 197.296 181, 190 177.880, 190 176.364 C 190 175.481, 188.809 175, 186.622 175 C 175.192 175, 181.446 171.405, 199 167.885 C 225.184 162.635, 232.012 151.495, 224.978 125.500 C 221.473 112.545, 221.169 104.428, 223.959 98.282 L 225.874 94.064 222.202 96.032 C 211.636 101.695, 192.058 97.010, 180.500 86.054 C 176.100 81.882, 166.200 74.229, 158.500 69.047 C 142.722 58.428, 133.138 49.849, 130.490 43.978 C 128.256 39.025, 127.744 39.025, 125.510 43.978 M 126.529 88.907 C 125.577 91.908, 120.458 95.961, 107.394 104.057 C 83.864 118.640, 79.901 126.777, 89.087 141.640 C 91.290 145.206, 93.840 146.439, 92.035 143.066 C 87.602 134.782, 92.922 126.858, 109.148 117.580 C 114.841 114.325, 121.412 110.132, 123.750 108.264 L 128 104.866 132.250 108.264 C 134.588 110.132, 141.159 114.325, 146.852 117.580 C 157.684 123.774, 164.923 130.374, 165.111 134.228 C 165.299 138.089, 164.838 141.422, 163.863 143.250 C 161.779 147.158, 165.059 144.756, 167.503 140.584 C 175.898 126.261, 171.789 118.363, 148.500 104.058 C 141.900 100.004, 134.397 94.493, 131.827 91.812 C 127.683 87.488, 127.084 87.160, 126.529 88.907 M 126.375 118.466 C 126.065 119.273, 121.423 122.826, 116.060 126.363 C 101.886 135.709, 99.343 140.241, 103.750 148.300 L 105.500 151.500 105.805 147.305 C 106.155 142.488, 109.429 139.032, 118.489 133.919 C 121.431 132.259, 124.379 130.248, 125.041 129.450 C 125.703 128.653, 127.035 128, 128 128 C 128.965 128, 130.297 128.653, 130.959 129.450 C 131.621 130.248, 134.569 132.259, 137.511 133.919 C 146.831 139.179, 150 142.579, 150 147.318 C 150 153.281, 153.107 149.962, 153.738 143.325 C 154.345 136.941, 152.451 134.613, 139.940 126.363 C 134.577 122.826, 129.935 119.273, 129.625 118.466 C 129.316 117.660, 128.585 117, 128 117 C 127.415 117, 126.684 117.660, 126.375 118.466 M 81 160.559 C 81 161.416, 81.450 161.840, 82 161.500 C 82.550 161.160, 83 160.459, 83 159.941 C 83 159.423, 82.550 159, 82 159 C 81.450 159, 81 159.702, 81 160.559 M 89.808 161.853 C 89.495 163.986, 89.737 164.655, 90.688 164.289 C 91.410 164.013, 92 163.159, 92 162.393 C 92 161.627, 92.034 160.674, 92.075 160.275 C 92.317 157.933, 90.164 159.432, 89.808 161.853 M 85.108 163.836 C 83.720 166.389, 84.083 167.362, 86.231 166.838 C 87.174 166.608, 87.420 165.700, 86.998 164 L 86.377 161.500 85.108 163.836 M 96.083 164.356 C 97.208 165.318, 103 165.836, 103 164.975 C 103 164.439, 101.350 164, 99.333 164 C 97.317 164, 95.854 164.160, 96.083 164.356 M 115.782 165.396 C 118.137 166.172, 120.612 167.249, 121.282 167.788 C 121.952 168.328, 124.008 169.092, 125.852 169.486 C 127.695 169.881, 130.130 171.130, 131.262 172.262 L 133.321 174.321 135.147 172.067 C 136.718 170.126, 137.738 169.861, 142.487 170.157 C 149.047 170.565, 149.398 169.934, 143.970 167.486 C 139.978 165.686, 139.910 165.690, 136.898 167.917 L 133.858 170.165 128.197 167.396 C 124.649 165.659, 120.478 164.506, 117.018 164.305 L 111.500 163.984 115.782 165.396 M 90.973 167.750 C 88.503 169.498, 88.507 169.501, 95.500 170.056 C 104.059 170.737, 104.206 170.656, 99.137 168.070 C 94.221 165.562, 94.072 165.556, 90.973 167.750 M 106.750 167.080 C 103.518 168.963, 104.959 170, 110.750 169.960 L 116.500 169.920 112.571 167.960 C 110.411 166.882, 108.611 166.014, 108.571 166.030 C 108.532 166.047, 107.713 166.519, 106.750 167.080 M 167.446 173.087 C 166.342 174.874, 168.665 176.301, 171.515 175.586 C 173.711 175.035, 173.965 174.662, 172.966 173.459 C 171.543 171.745, 168.406 171.534, 167.446 173.087 M 43 174.247 C 43 176.282, 47.401 180.822, 50.527 182.010 C 53.980 183.323, 63.313 183.315, 62.500 182 C 62.160 181.450, 60.158 181, 58.052 181 C 53.583 181, 48.581 177.648, 50.831 176.161 C 51.799 175.522, 51.391 175.127, 49.331 174.711 C 47.774 174.397, 45.712 173.835, 44.750 173.463 C 43.573 173.008, 43 173.264, 43 174.247 M 193 173.859 C 191.113 174.452, 192.321 174.781, 197.925 175.201 C 203.527 175.621, 205.678 176.207, 206.688 177.588 C 207.973 179.345, 208.114 179.331, 210.208 177.237 C 213.307 174.138, 200.266 171.578, 193 173.859 M 125.500 174.960 C 123.229 175.891, 124.376 176.534, 132.809 179.061 C 137.296 180.405, 137.798 181.093, 135.615 182.905 C 134.564 183.777, 133.177 183.709, 129.865 182.622 C 116.060 178.093, 102.123 176.374, 100.500 179 C 100.113 179.627, 102.254 180, 106.234 180 C 118.116 180, 133.502 185.419, 130.908 188.690 C 129.607 190.330, 129.721 190.324, 132.390 188.618 C 135.217 186.811, 135.458 186.818, 143.563 188.959 L 151.847 191.148 157.674 186.457 C 167.079 178.886, 165.580 178.731, 155.780 186.262 L 152.059 189.121 146.280 187.374 C 137.997 184.871, 136.637 181.203, 143.872 180.884 C 145.565 180.809, 145.878 180.605, 144.751 180.311 C 143.789 180.059, 142.709 178.691, 142.353 177.269 C 141.774 174.964, 141.573 174.864, 140.492 176.342 C 138.664 178.842, 130 177.601, 130 174.839 C 130 173.814, 128.177 173.863, 125.500 174.960 M 62.996 176.567 C 66.568 177.341, 69.643 178.430, 69.829 178.987 C 70.015 179.544, 70.877 180, 71.745 180 C 72.614 180, 75.236 181.120, 77.572 182.490 C 81.549 184.820, 82.034 184.886, 85.160 183.529 L 88.500 182.078 84.905 182.039 C 82.618 182.014, 80.652 181.272, 79.500 180 C 78.505 178.900, 76.972 177.993, 76.095 177.985 C 75.218 177.977, 72.700 177.321, 70.500 176.529 C 68.300 175.736, 64.250 175.104, 61.500 175.123 L 56.500 175.159 62.996 176.567 M 111 185.939 C 116.771 186.801, 124.083 190.603, 124.731 193.079 C 125.007 194.135, 125.786 195, 126.462 195 C 128.002 195, 130.394 197.608, 132.425 201.502 L 133.988 204.500 133.994 201.554 C 134.010 193.917, 121.677 184.870, 111.610 185.134 L 106.500 185.267 111 185.939 M 122.150 202.169 C 121.936 207.411, 128.504 221.219, 129.310 217.222 C 129.613 215.725, 130.167 213.707, 130.541 212.739 C 131.052 211.419, 130.835 211.126, 129.676 211.571 C 127.815 212.285, 123.384 205.795, 122.731 201.398 C 122.349 198.830, 122.283 198.918, 122.150 202.169"
          stroke="none" fill="#7f9ba3" fill-rule="evenodd"/>
</svg>