<svg xmlns="http://www.w3.org/2000/svg" width="502" height="508" viewBox="0 0 502 508" version="1.1">
    <path d="M 217 9.520 C 48.464 30.436, -50.297 214.392, 25.620 365.989 C 117.789 550.039, 378.211 550.039, 470.380 365.989 C 558.351 190.321, 412.584 -14.753, 217 9.520 M 233.500 57.047 C 90.987 66.992, 4.651 222.414, 71.489 348.699 C 146.636 490.679, 349.364 490.679, 424.511 348.699 C 497.301 211.170, 389.243 46.179, 233.500 57.047 M 159 176.877 C 123.497 188.538, 130.821 239.494, 168 239.494 C 209.652 239.494, 211.115 177.924, 169.500 176.357 C 165.100 176.192, 160.375 176.426, 159 176.877 M 319 176.877 C 283.497 188.538, 290.821 239.494, 328 239.494 C 369.652 239.494, 371.115 177.924, 329.500 176.357 C 325.100 176.192, 320.375 176.426, 319 176.877 M 136 305.592 C 84.693 327.781, 170.369 400, 248 400 C 320.094 400, 398.598 340.745, 366.838 310.301 C 355.373 299.311, 343.349 301.467, 326.958 317.452 C 280.186 363.062, 215.814 363.062, 169.042 317.452 C 155.213 303.966, 146.769 300.935, 136 305.592"
          stroke="none" fill="#04ac6c" fill-rule="evenodd"/>
</svg>