<svg xmlns="http://www.w3.org/2000/svg" width="524" height="490" viewBox="0 0 524 490" version="1.1">
    <path d="M 250.500 22.385 C 248.300 23.124, 224.675 31.927, 198 41.947 C 119.518 71.425, 126 62.159, 126 144.872 L 126 202.670 78.250 220.449 C 15.725 243.730, 16.713 243.200, 9.146 257.500 L 6.500 262.500 6.500 327.520 L 6.500 392.541 9.809 399.264 C 15.151 410.115, 18.249 412.078, 74.420 440.202 C 149.503 477.795, 133.968 477.847, 209.695 439.755 L 261.889 413.500 314.507 439.816 C 373.599 469.371, 372.742 469, 381.969 469 C 391.719 469, 394.291 467.900, 450.861 439.550 C 525.454 402.167, 518.169 414.540, 517.779 325.908 L 517.500 262.500 514.649 257.084 C 513.081 254.105, 509.481 249.359, 506.649 246.538 L 501.500 241.408 449.780 222.036 L 398.060 202.663 397.780 143.582 L 397.500 84.500 394.574 78.722 C 387.763 65.271, 387.562 65.165, 323 40.919 C 266.527 19.710, 261.942 18.538, 250.500 22.385 M 211.500 74.068 C 185.100 83.922, 162.735 92.325, 161.800 92.742 C 159.499 93.768, 260.086 134.427, 263.265 133.755 C 264.494 133.496, 286.875 124.616, 313 114.023 C 339.125 103.430, 361.327 94.454, 362.338 94.077 C 364.346 93.327, 265.117 55.931, 261.500 56.074 C 260.400 56.117, 237.900 64.215, 211.500 74.068 M 321.500 149.352 L 279.500 167.643 279.237 201.434 C 279.027 228.326, 279.231 235.128, 280.237 234.753 C 280.931 234.493, 300.055 227.355, 322.734 218.891 L 363.969 203.500 363.984 167.250 C 363.993 147.313, 363.887 131.013, 363.750 131.030 C 363.613 131.046, 344.600 139.291, 321.500 149.352 M 90.768 252.829 C 63.415 263.063, 41.382 271.782, 41.805 272.205 C 42.229 272.629, 64.943 281.992, 92.281 293.012 L 141.987 313.049 191.714 293.004 C 219.063 281.980, 241.779 272.621, 242.193 272.207 C 242.895 271.505, 143.278 233.867, 141.369 234.112 C 140.891 234.173, 118.120 242.596, 90.768 252.829 M 330.768 252.829 C 303.415 263.063, 281.382 271.782, 281.805 272.205 C 282.229 272.629, 304.943 281.992, 332.281 293.012 L 381.987 313.049 431.714 293.004 C 459.063 281.980, 481.779 272.621, 482.193 272.207 C 482.895 271.505, 383.278 233.867, 381.369 234.112 C 380.891 234.173, 358.120 242.596, 330.768 252.829 M 201.500 328.420 L 159.500 347.660 159.238 386.830 C 159.095 408.373, 159.209 426, 159.493 426 C 159.777 426, 178.907 416.549, 202.005 404.998 L 244 383.995 244 346.498 C 244 325.874, 243.887 309.041, 243.750 309.090 C 243.613 309.140, 224.600 317.838, 201.500 328.420 M 441.500 328.420 L 399.500 347.660 399.238 386.830 C 399.095 408.373, 399.209 426, 399.493 426 C 399.777 426, 418.907 416.549, 442.005 404.998 L 484 383.995 484 346.498 C 484 325.874, 483.887 309.041, 483.750 309.090 C 483.613 309.140, 464.600 317.838, 441.500 328.420"
          stroke="none" fill="#647474" fill-rule="evenodd"/>
</svg>