<svg version="1.0" xmlns="http://www.w3.org/2000/svg"
 width="230" height="228" viewBox="0 0 230 228">
<g transform="translate(0,228) scale(0.1,-0.1)">
<path fill="#AB3E85" d="M965 2209 c-129 -28 -320 -107 -385 -158 l-25 -20 38 -39 38 -39
-123 -125 c-68 -68 -136 -133 -151 -143 l-28 -18 -35 34 c-35 33 -36 34 -51
14 -35 -45 -114 -227 -139 -320 -33 -122 -44 -319 -24 -429 23 -128 101 -317
165 -401 15 -19 17 -19 49 20 l34 40 24 -21 c113 -99 154 -139 211 -205 l66
-77 -40 -33 -41 -34 55 -33 c83 -50 204 -100 314 -129 139 -37 337 -39 467 -4
112 29 223 76 301 125 l59 38 -40 38 -40 37 90 96 c50 53 118 119 151 146 l60
50 36 -35 36 -35 32 50 c69 107 128 278 152 442 29 202 -26 441 -147 641 l-37
61 -36 -41 -36 -42 -81 73 c-45 39 -112 107 -149 150 l-68 78 36 30 c21 17 37
34 37 38 0 4 -34 27 -76 51 -84 48 -230 101 -342 125 -80 16 -289 19 -357 4z
m402 -113 c76 -21 183 -64 202 -82 3 -2 -6 -15 -19 -29 l-23 -24 92 -99 c50
-55 148 -154 217 -221 l126 -123 28 27 28 27 16 -24 c29 -44 64 -142 81 -228
13 -65 16 -114 12 -210 -6 -135 -24 -211 -79 -333 l-31 -68 -27 26 -27 26
-110 -103 c-61 -57 -159 -154 -218 -216 l-108 -113 28 -29 28 -29 -73 -35
c-40 -19 -115 -45 -167 -57 -80 -18 -113 -21 -221 -16 -138 6 -225 26 -339 77
l-66 30 28 30 28 29 -217 217 -217 217 -30 -29 c-16 -15 -31 -26 -33 -23 -16
18 -60 123 -81 196 -53 179 -41 366 34 558 45 115 44 115 79 82 l29 -28 217
217 217 216 -25 27 c-14 15 -26 30 -26 34 0 21 177 86 290 106 90 16 253 6
357 -23z"/>
<path fill="#AB3E85" d="M780 1555 l0 -65 50 0 50 0 0 -345 0 -345 -50 0 -50 0 0 -70 0 -70
365 0 365 0 0 70 0 70 -45 0 -45 0 0 345 0 345 45 0 45 0 0 65 0 65 -365 0
-365 0 0 -65z"/>
</g>
</svg>
