<svg xmlns="http://www.w3.org/2000/svg" width="500" height="508" viewBox="0 0 500 508" version="1.1">
    <path d="M 217 9.520 C 48.464 30.436, -50.297 214.392, 25.620 365.989 C 117.789 550.039, 378.211 550.039, 470.380 365.989 C 558.351 190.321, 412.584 -14.753, 217 9.520 M 233.500 57.047 C 90.987 66.992, 4.651 222.414, 71.489 348.699 C 146.636 490.679, 349.364 490.679, 424.511 348.699 C 497.301 211.170, 389.243 46.179, 233.500 57.047 M 159 176.877 C 123.497 188.538, 130.821 239.494, 168 239.494 C 209.652 239.494, 211.115 177.924, 169.500 176.357 C 165.100 176.192, 160.375 176.426, 159 176.877 M 319 176.877 C 283.497 188.538, 290.821 239.494, 328 239.494 C 369.652 239.494, 371.115 177.924, 329.500 176.357 C 325.100 176.192, 320.375 176.426, 319 176.877 M 149.500 322.377 C 131.340 330.941, 131.340 357.059, 149.500 365.623 L 154.500 367.980 248 367.968 C 351.457 367.955, 345.682 368.301, 352.882 361.688 C 364.916 350.636, 361.148 328.951, 346 322.084 C 341.574 320.077, 339.962 320.044, 248 320.032 L 154.500 320.020 149.500 322.377"
          stroke="none" fill="#748c98" fill-rule="evenodd"/>
</svg>