<svg xmlns="http://www.w3.org/2000/svg" width="128" height="128" viewBox="0 0 128 128" version="1.1">
    <path d="M 49 5.508 C 28.137 10.597, 11.043 27.608, 5.570 48.731 C 3.543 56.553, 3.550 71.468, 5.585 79.356 C 10.889 99.914, 28.828 117.683, 49.103 122.463 C 57.290 124.392, 70.710 124.392, 78.897 122.463 C 99.172 117.683, 117.111 99.914, 122.415 79.356 C 124.450 71.468, 124.457 56.553, 122.430 48.731 C 116.893 27.360, 99.735 10.454, 78.500 5.445 C 71.064 3.691, 56.321 3.722, 49 5.508 M 51 10.508 C 35.156 14.372, 21.050 25.222, 15.267 37.990 C 6.680 56.952, 6.761 72.052, 15.546 90.392 C 25.443 111.051, 52.707 123.167, 76.615 117.528 C 102.568 111.408, 119.074 89.943, 118.547 63 C 118.336 52.234, 117.166 47.233, 112.729 38.152 C 102.186 16.567, 75.379 4.562, 51 10.508 M 48.316 14.962 C 43.815 16.547, 38.427 18.652, 36.343 19.641 C 32.564 21.435, 21 32.337, 21 34.107 C 21 34.620, 19.869 36.831, 18.487 39.020 C 17.106 41.209, 16.261 43, 16.610 43 C 16.959 43, 16.685 43.675, 16 44.500 C 15.315 45.325, 15.041 46, 15.391 46 C 15.741 46, 15.349 47.623, 14.520 49.606 C 13.691 51.590, 13.243 53.584, 13.523 54.037 C 13.803 54.491, 13.575 55.144, 13.016 55.490 C 12.457 55.835, 12 59.665, 12 64 C 12 68.335, 12.457 72.165, 13.016 72.510 C 13.575 72.856, 13.803 73.509, 13.523 73.963 C 13.243 74.416, 13.691 76.410, 14.520 78.394 C 15.349 80.377, 15.741 82, 15.391 82 C 15.041 82, 15.315 82.675, 16 83.500 C 16.685 84.325, 16.959 85, 16.610 85 C 16.261 85, 17.106 86.791, 18.487 88.980 C 19.869 91.169, 21 93.221, 21 93.539 C 21 93.857, 22.459 95.932, 24.241 98.151 C 28.796 103.819, 35.412 108.366, 43 111.044 C 46.575 112.305, 50.064 113.768, 50.754 114.295 C 52.378 115.534, 69.300 116.505, 71.678 115.496 C 72.680 115.070, 74.175 114.619, 75 114.492 C 79.832 113.749, 92.246 108.211, 96.687 104.817 C 101.346 101.258, 107 95.078, 107 93.547 C 107 93.224, 108.131 91.169, 109.513 88.980 C 110.894 86.791, 111.739 85, 111.390 85 C 111.041 85, 111.315 84.325, 112 83.500 C 112.685 82.675, 112.999 82, 112.698 82 C 112.397 82, 113.017 79.536, 114.076 76.525 C 115.275 73.113, 116 68.394, 116 64 C 116 59.606, 115.275 54.887, 114.076 51.475 C 113.017 48.464, 112.397 46, 112.698 46 C 112.999 46, 112.685 45.325, 112 44.500 C 111.315 43.675, 111.041 43, 111.390 43 C 111.739 43, 110.894 41.209, 109.513 39.020 C 108.131 36.831, 107 34.776, 107 34.453 C 107 34.131, 105.847 32.354, 104.437 30.506 C 100.423 25.243, 92.108 19.442, 85 16.945 C 81.425 15.690, 77.943 14.238, 77.263 13.719 C 76.582 13.201, 75.359 13.032, 74.545 13.344 C 73.730 13.657, 72.798 13.482, 72.473 12.956 C 72.148 12.430, 68.421 12.018, 64.191 12.040 C 58.352 12.071, 54.530 12.775, 48.316 14.962 M 52.112 18.517 C 49.149 19.349, 43.974 21.483, 40.612 23.260 C 34.317 26.588, 25 35.221, 25 37.728 C 25 38.506, 24.357 39.785, 23.572 40.571 C 22.787 41.356, 21.123 44.586, 19.875 47.749 C 16.619 56, 16.619 72, 19.875 80.251 C 21.123 83.414, 22.787 86.644, 23.572 87.429 C 24.357 88.215, 25 89.494, 25 90.272 C 25 93.110, 34.535 101.629, 41.752 105.239 C 50.790 109.761, 58.498 111.399, 67.528 110.718 C 81.079 109.696, 97.104 101.041, 101.551 92.342 C 102.623 90.246, 104.030 87.961, 104.678 87.266 C 105.326 86.570, 106.877 83.414, 108.125 80.251 C 111.381 72, 111.381 56, 108.125 47.749 C 106.877 44.586, 105.326 41.430, 104.678 40.734 C 104.030 40.039, 102.616 37.741, 101.535 35.628 C 100.455 33.516, 98.655 31.428, 97.535 30.990 C 96.416 30.551, 94.600 29.361, 93.500 28.346 C 92.400 27.331, 90.263 25.861, 88.750 25.081 C 87.237 24.301, 86 23.320, 86 22.903 C 86 22.485, 83.412 21.161, 80.250 19.960 C 72.732 17.105, 59.547 16.429, 52.112 18.517 M 60.109 51.510 L 55.719 55 40.359 55 C 25.667 55, 25 55.087, 25 57 C 25 58.894, 25.677 59.002, 37.750 59.032 C 49.179 59.060, 50.299 59.216, 48.559 60.532 C 47.130 61.612, 43.765 62, 35.809 62 C 25.741 62, 25 62.134, 25 63.960 C 25 65.724, 25.822 65.948, 33.250 66.210 L 41.500 66.500 35.121 71.500 C 31.613 74.250, 27.788 77.277, 26.621 78.228 C 24.603 79.871, 26.436 79.957, 64.283 79.978 L 104.067 80 99.272 75.750 C 96.634 73.412, 92.907 70.267, 90.988 68.761 L 87.500 66.022 95.250 66.011 C 102.330 66.001, 103 65.827, 103 64 C 103 62.128, 102.333 62, 92.622 62 C 84.618 62, 81.960 61.657, 81 60.500 C 79.906 59.181, 81.160 59, 91.378 59 C 102.333 59, 103 58.885, 103 57 C 103 55.091, 102.333 55, 88.409 55 L 73.818 55 69.729 51.500 C 67.480 49.575, 65.384 48.004, 65.070 48.010 C 64.757 48.015, 62.524 49.590, 60.109 51.510"
          stroke="none" fill="#5eb4cc" fill-rule="evenodd"/>
</svg>