<svg version="1.0" xmlns="http://www.w3.org/2000/svg"
     width="128" height="128" viewBox="0 0 128 128"
     preserveAspectRatio="xMidYMid meet">

    <g transform="translate(0,128) scale(0.1,-0.1)">
        <path fill="#8B0407" d="M234 1271 c3 -5 110 -103 237 -217 l230 -209 -190 -3 -191 -2 0 -195
0 -195 195 0 195 0 0 65 0 65 -60 0 -60 0 0 60 0 60 60 0 59 0 3 66 3 67 107
-97 107 -97 -355 -320 -355 -319 391 0 390 0 0 640 0 640 -386 0 c-223 0 -383
-4 -380 -9z"/>
        <path fill="#8B0407" d="M610 640 l0 -40 45 0 45 0 0 40 0 40 -45 0 -45 0 0 -40z"/>
    </g>
</svg>
