<svg version="1.0" xmlns="http://www.w3.org/2000/svg"
 width="128" height="128" viewBox="0 0 128 128">
<g transform="translate(0,128) scale(0.1,-0.1)">
<path fill="#5B7D62" d="M609 1120 c-13 -22 -26 -40 -30 -40 -4 0 -10 -10 -13 -22 -3 -13 -24
-43 -46 -67 -22 -25 -40 -47 -40 -51 0 -4 -16 -24 -36 -46 -78 -86 -90 -99
-108 -122 -21 -26 -26 -20 67 -85 46 -31 61 -28 28 7 l-23 24 65 62 c106 101
147 121 147 71 -1 -34 -51 -180 -73 -215 -10 -15 -17 -29 -15 -31 2 -2 48 -4
103 -5 106 -2 114 2 78 43 -9 9 -17 25 -18 35 -1 9 -7 33 -13 53 -7 19 -14 53
-16 75 -3 21 -7 46 -11 55 -14 35 37 11 97 -48 90 -86 91 -88 78 -113 -11 -20
-10 -21 11 -15 12 4 40 20 61 35 l38 28 -22 28 c-13 16 -29 34 -38 41 -8 6
-15 16 -15 22 0 6 -15 28 -33 48 -39 46 -65 82 -133 191 -29 45 -56 82 -60 82
-4 0 -18 -18 -30 -40z"/>
<path fill="#5B7D62" d="M949 621 c-14 -5 -36 -14 -50 -22 l-24 -13 25 -6 c21 -5 29 -20 58
-117 44 -142 40 -158 -29 -103 -28 22 -61 53 -72 68 -11 15 -34 42 -51 60 -16
17 -26 32 -22 32 5 0 3 7 -4 15 -11 14 -18 7 -46 -46 -19 -34 -43 -72 -54 -84
-27 -29 -25 -35 13 -35 17 0 51 -5 75 -10 23 -6 57 -12 76 -14 18 -3 50 -16
69 -29 31 -21 34 -27 22 -37 -8 -6 -19 -9 -24 -6 -5 4 -13 1 -16 -5 -4 -5 -13
-8 -21 -5 -7 3 -16 1 -20 -5 -3 -6 -12 -8 -19 -5 -7 2 -17 0 -21 -4 -8 -8 -57
-19 -101 -22 -8 -1 -13 -17 -13 -42 l0 -42 108 13 c92 10 317 19 347 13 6 -1
23 -2 38 -1 32 1 31 5 -36 106 -21 33 -40 66 -42 75 -5 25 -47 114 -61 130 -7
8 -13 18 -13 23 -1 4 -1 8 -2 10 0 1 -2 9 -4 17 -12 48 -35 95 -47 97 -7 1
-25 -2 -39 -6z"/>
<path fill="#5B7D62" d="M246 577 c-9 -23 -16 -46 -16 -50 0 -5 -20 -51 -45 -103 -25 -51 -45
-98 -45 -102 0 -5 -20 -40 -45 -78 -24 -38 -45 -79 -45 -91 l0 -23 258 0 c142
0 261 2 263 4 2 2 2 27 1 56 -3 38 -7 48 -16 41 -14 -12 -204 33 -225 54 -11
11 -7 17 27 34 46 23 164 51 218 51 19 0 34 1 34 3 0 2 -20 25 -45 51 -24 26
-44 51 -43 55 1 3 -5 22 -14 41 l-16 35 -11 -28 c-6 -15 -24 -42 -41 -60 -17
-18 -32 -39 -35 -47 -8 -21 -116 -101 -127 -94 -6 4 -6 10 0 16 6 6 8 16 6 23
-3 7 -1 16 5 19 6 4 8 13 5 20 -3 8 -1 17 5 20 6 4 8 13 5 20 -3 8 0 17 5 21
6 3 9 10 7 14 -3 4 1 25 9 47 10 31 19 40 42 44 26 5 25 6 -26 28 -29 12 -59
22 -66 22 -7 0 -20 -19 -29 -43z"/>
<path fill="#8D6B76" d="M545 561 c-6 -10 20 -83 43 -118 35 -55 83 -31 122 59 25 58 16 80
-21 54 -29 -20 -78 -20 -103 -1 -23 17 -33 19 -41 5 6z m115 -56 c0 -2 -8 -9
-18 -14 -14 -8 -19 -6 -19 5 0 7 9 14 19 14 10 0 18 -2 18 -5z"/>
</g>
</svg>
