<svg xmlns="http://www.w3.org/2000/svg" width="26" height="26" viewBox="0 0 26 26" version="1.1">
    <path d="M 12 2.339 C 12 3.852, 11.134 5.074, 9.548 5.796 C 5.638 7.577, 3.640 12.379, 5.041 16.624 C 6.006 19.547, 5.933 20.417, 4.598 21.891 C 3.719 22.863, 3 24.185, 3 24.829 C 3 26.621, 5.488 26.223, 7.384 24.128 C 9.639 21.636, 17.589 21.717, 19.441 24.250 C 20.896 26.240, 23 26.582, 23 24.829 C 23 24.185, 22.289 22.872, 21.420 21.912 C 20.199 20.563, 20.086 19.708, 20.920 18.149 C 22.956 14.345, 22.179 10.905, 18.500 7.435 C 16.575 5.620, 15 3.204, 15 2.067 C 15 0.896, 14.350 0, 13.500 0 C 12.594 0, 12 0.927, 12 2.339 M 9.223 8.557 C 5.182 11.386, 6.789 14.398, 10.952 11.798 C 12.467 10.852, 13.401 10.877, 15.340 11.914 C 19.394 14.084, 20.841 12.750, 17.767 9.676 C 14.716 6.625, 12.411 6.323, 9.223 8.557 M 7 15.441 C 7 16.234, 7.399 17.129, 7.887 17.430 C 8.988 18.111, 11.229 15.562, 10.325 14.658 C 9.135 13.468, 7 13.971, 7 15.441 M 16 15.441 C 16 17.529, 18.075 18.492, 19.096 16.878 C 20.452 14.738, 20.171 14, 18 14 C 16.900 14, 16 14.648, 16 15.441 M 11 18 C 10.039 19.796, 10.240 20, 12.965 20 C 16.193 20, 16.750 19.150, 14.800 17.200 C 13.113 15.513, 12.232 15.698, 11 18"
          stroke="none" fill="#040404" fill-rule="evenodd"/>
</svg>